<svg xmlns="http://www.w3.org/2000/svg" viewBox="0 0 122.88 122.88"><defs><style>.a{fill:#fff;}.b{fill-rule:evenodd;}.c{fill:#d92d27;}</style></defs><path class="a" d="M24,29.38,93.49,98.92A49.31,49.31,0,0,1,24,29.38ZM101.68,90,32.92,21.2a49.29,49.29,0,0,1,77.83,40.24h0A49.12,49.12,0,0,1,101.68,90Z"/><path class="b" d="M75.42,38.64C86.21,27,88,37.58,96,39.81c1,.26,1.67.33,1.6.78-.69,4.57-2.18,5.43-3.84,5.47-1.84.06-3.34,0-4.44.54a8.11,8.11,0,0,0-3.16,2.55L74.85,43.39a19.13,19.13,0,0,0,.57-4.75ZM85,51.35c-2.41,6.4.8,15.93-9.95,19.43a63.62,63.62,0,0,0,.14,16.37L76.46,87c2.35-.25,2.33,1.89,1.22,3.26h-7c-.5-6.53-1.76-13.69-1.24-19.93-3.66,1-5.87.72-9.84-.8-1.93-.73-9.9-5.49-12.06-3.56-1.21,1.1,2,5.47-6,13.23l.14,7.67H43.1c2,0,1.94,2.05,1.2,3.39h-4c-2.63,0-2.08.28-2.12-2.49l-.06-6-.42-3.7c0-2.2,1.59-4.55.07-9.8-1-3.47-.91-6.24-3.53-6.62-2.42,4.89-4.74,9.37-6.78,14.49a10.42,10.42,0,0,1-.49,1c-2.32,5.35-3.29,1.33-2-1.84l.86-2.12c1.12-4.48,4.25-12.89,7.21-16,11.16-11.77,33.77-.63,40.43-10.82l11.44,5Z"/><path class="c" d="M61.44,122.88A61.31,61.31,0,1,0,38,118.22a61.29,61.29,0,0,0,23.49,4.66ZM101.68,90,32.93,21.2a49.44,49.44,0,0,1,47.38-5.34A49.53,49.53,0,0,1,107,42.58a49,49,0,0,1,3.73,18.86h0A48.93,48.93,0,0,1,101.68,90ZM24,29.38,93.5,98.92A49.32,49.32,0,0,1,24,29.38Z"/></svg>