<svg xmlns:dc="http://purl.org/dc/elements/1.1/" xmlns:cc="http://creativecommons.org/ns#" xmlns:rdf="http://www.w3.org/1999/02/22-rdf-syntax-ns#" xmlns:svg="http://www.w3.org/2000/svg" xmlns="http://www.w3.org/2000/svg" xml:space="preserve" id="svg2" version="1.1" viewBox="92.32 298.32 553.2 534.64"><metadata id="metadata8"><rdf:RDF><cc:Work rdf:about=""><dc:format>image/svg+xml</dc:format><dc:type rdf:resource="http://purl.org/dc/dcmitype/StillImage"/></cc:Work></rdf:RDF></metadata><defs id="defs6"><clipPath id="clipPath18" clipPathUnits="userSpaceOnUse"><path id="path16" d="M 0,842 H 595.22 V 0 H 0 Z"/></clipPath><clipPath id="clipPath26" clipPathUnits="userSpaceOnUse"><path id="path24" d="M 84.6602,602.6 H 468.72 V 238.64 H 84.6602 Z"/></clipPath><clipPath id="clipPath42" clipPathUnits="userSpaceOnUse"><path id="path40" d="M 0,842 H 595.22 V 0 H 0 Z"/></clipPath><clipPath id="clipPath50" clipPathUnits="userSpaceOnUse"><path id="path48" d="M 327.81,515.33 H 449.2 V 410.41 H 327.81 Z"/></clipPath><clipPath id="clipPath106" clipPathUnits="userSpaceOnUse"><path id="path104" d="M 0,842 H 595.22 V 0 H 0 Z"/></clipPath><clipPath id="clipPath114" clipPathUnits="userSpaceOnUse"><path id="path112" d="M 104.17,515.34 H 225.56 V 410.41 H 104.17 Z"/></clipPath><clipPath id="clipPath166" clipPathUnits="userSpaceOnUse"><path id="path164" d="M 0,842 H 595.22 V 0 H 0 Z"/></clipPath><clipPath id="clipPath174" clipPathUnits="userSpaceOnUse"><path id="path172" d="M 96.0522,523.916 H 276.66 V 385.07 H 96.0522 Z"/></clipPath><clipPath id="clipPath202" clipPathUnits="userSpaceOnUse"><path id="path200" d="M 0,842 H 595.22 V 0 H 0 Z"/></clipPath><clipPath id="clipPath254" clipPathUnits="userSpaceOnUse"><path id="path252" d="M 0,842 H 595.22 V 0 H 0 Z"/></clipPath><clipPath id="clipPath262" clipPathUnits="userSpaceOnUse"><path id="path260" d="M 276.66,523.916 H 457.325 V 385.04 H 276.66 Z"/></clipPath><clipPath id="clipPath290" clipPathUnits="userSpaceOnUse"><path id="path288" d="M 0,842 H 595.22 V 0 H 0 Z"/></clipPath><clipPath id="clipPath298" clipPathUnits="userSpaceOnUse"><path id="path296" d="m 160.8,396.92 h 231.78 v -99.3 H 160.8 Z"/></clipPath><clipPath id="clipPath314" clipPathUnits="userSpaceOnUse"><path id="path312" d="M 0,842 H 595.22 V 0 H 0 Z"/></clipPath><clipPath id="clipPath322" clipPathUnits="userSpaceOnUse"><path id="path320" d="M 206.4,585.096 H 346.98 V 396.94 H 206.4 Z"/></clipPath><clipPath id="clipPath470" clipPathUnits="userSpaceOnUse"><path id="path468" d="M 0,842 H 595.22 V 0 H 0 Z"/></clipPath><clipPath id="clipPath478" clipPathUnits="userSpaceOnUse"><path id="path476" d="m 252.06,458.364 h 49.2 v -49.151 h -49.2 z"/></clipPath><clipPath id="clipPath514" clipPathUnits="userSpaceOnUse"><path id="path512" d="M 0,842 H 595.22 V 0 H 0 Z"/></clipPath><clipPath id="clipPath522" clipPathUnits="userSpaceOnUse"><path id="path520" d="M 122.04,393.56 H 435.96 V 305.84 H 122.04 Z"/></clipPath><clipPath id="clipPath546" clipPathUnits="userSpaceOnUse"><path id="path544" d="M 0,842 H 595.22 V 0 H 0 Z"/></clipPath><clipPath id="clipPath554" clipPathUnits="userSpaceOnUse"><path id="path552" d="M 69.2402,618.26 H 484.14 V 217.28 H 69.2402 Z"/></clipPath></defs><g transform="matrix(1.3333333,0,0,-1.3333333,0,1122.6667)" id="g10"><g id="g12"><g clip-path="url(#clipPath18)" id="g14"><g id="g20"><g id="g22"/><g id="g34"><g id="g32" clip-path="url(#clipPath26)"><g id="g30" transform="translate(421.3203,288.7402)"><path id="path28" style="fill:#1c4f99;fill-opacity:1;fill-rule:nonzero;stroke:none" d="M 0,0 V -0.061 H -0.061 V -0.12 H -0.12 V -0.181 H -0.181 V -0.24 H -0.24 V -0.3 H -0.301 V -0.36 L -0.42,-0.42 -0.54,-0.54 -0.66,-0.601 C -0.98,-0.96 -1.25,-1.13 -1.561,-1.44 l -0.24,-0.241 C -2.11,-1.88 -2.34,-2.181 -2.641,-2.4 L -2.88,-2.641 H -3 C -3.25,-2.891 -3.79,-3.41 -4.08,-3.54 L -4.2,-3.66 -4.261,-3.721 -4.32,-3.78 -4.38,-3.84 -4.44,-3.9 H -4.5 L -4.561,-3.96 C -4.71,-4.11 -4.71,-4.021 -4.92,-4.26 h -0.06 l -0.3,-0.301 H -5.34 L -5.4,-4.62 -5.521,-4.681 c -0.29,-0.269 -1.169,-0.92 -1.5,-1.079 L -7.141,-5.88 -7.261,-5.94 -7.38,-6.061 -7.561,-6.12 C -7.99,-6.49 -8.7,-6.87 -9.181,-7.2 L -9.36,-7.32 -9.48,-7.38 -9.601,-7.5 -9.78,-7.561 -9.9,-7.681 -10.08,-7.74 -10.2,-7.8 -10.32,-7.92 -10.5,-7.98 -10.62,-8.101 -10.801,-8.16 -10.92,-8.28 -11.101,-8.34 -11.221,-8.4 -11.4,-8.521 -11.521,-8.58 -11.7,-8.7 -11.82,-8.76 -12,-8.82 -12.12,-8.94 c -0.641,-0.281 -1.24,-0.67 -1.86,-0.96 l -0.18,-0.06 -0.12,-0.061 c -0.56,-0.359 -1.37,-0.629 -1.92,-0.959 l -0.18,-0.06 -0.12,-0.061 -0.181,-0.059 c -1.469,-0.72 -3.149,-1.39 -4.679,-1.981 l -0.54,-0.179 -0.121,-0.06 -0.179,-0.12 c -3.76,-1.36 -7.49,-2.59 -11.28,-3.84 l -0.241,-0.06 -0.179,-0.06 c -7.651,-2.471 -15.31,-4.99 -23.04,-7.2 l -0.361,-0.12 -0.42,-0.12 -0.359,-0.121 -0.42,-0.059 -0.36,-0.12 -0.42,-0.12 c -7.79,-2.23 -15.72,-4.13 -23.64,-5.88 l -0.36,-0.06 -0.42,-0.12 c -5.74,-1.21 -11.46,-2.38 -17.16,-3.42 h -0.18 l -0.24,-0.06 h -0.18 l -0.181,-0.06 -0.239,-0.06 c -2.381,-0.35 -4.87,-0.81 -7.261,-1.14 l -0.179,-0.061 h -0.241 c -1.71,-0.269 -3.769,-0.689 -5.46,-0.84 l -0.059,-0.059 h -0.36 l -0.06,-0.061 h -0.301 l -0.059,-0.059 h -0.3 l -0.061,-0.06 h -0.359 l -0.12,-0.06 h -0.24 l -0.06,-0.06 h -0.36 l -0.06,-0.06 h -0.181 l -0.12,-0.06 h -0.239 l -0.181,-0.061 h -0.12 l -0.179,-0.059 c -0.47,-0.05 -1.1,-0.26 -1.56,-0.3 l -0.12,-0.06 h -0.12 l -0.18,-0.06 h -0.12 l -0.12,-0.061 h -0.18 l -0.24,-0.12 h -0.12 c -0.67,-0.179 -1.53,-0.38 -2.16,-0.599 h -0.12 l -0.121,-0.06 -0.179,-0.06 h -0.12 l -0.241,-0.121 h -0.12 l -0.179,-0.059 -0.121,-0.061 h -0.119 l -0.24,-0.119 h -0.121 l -0.179,-0.06 -0.12,-0.06 h -0.12 l -0.36,-0.181 H -126 l -0.36,-0.179 h -0.12 l -0.12,-0.06 -0.18,-0.06 -0.12,-0.06 h -0.121 l -0.239,-0.12 c -0.49,-0.28 -0.15,0.059 -0.781,-0.3 l -0.119,-0.06 h -0.12 l -0.241,-0.121 c -0.29,-0.139 -0.549,-0.179 -0.779,-0.299 l -0.241,-0.12 c -0.48,-0.26 -0.209,0.02 -0.659,-0.241 l -0.72,-0.359 c -1.4,-0.49 -3.13,-1.441 -4.44,-2.16 l -0.36,-0.18 c -0.53,-0.34 -1.341,-0.73 -1.801,-1.08 l -0.239,-0.12 -0.12,-0.12 -0.12,-0.06 -0.18,-0.06 -0.12,-0.12 h -0.06 l -0.12,-0.121 h -0.061 l -0.119,-0.12 h -0.06 l -0.12,-0.119 h -0.06 l -0.121,-0.12 h -0.059 l -0.06,-0.061 h -0.06 v -0.059 l -0.06,-0.061 h -0.06 l -0.12,-0.119 h -0.06 l -0.061,-0.06 h -0.059 l -0.12,-0.12 h -0.06 v -0.06 h -0.06 l -0.12,-0.12 h -0.061 l -0.059,-0.061 h -0.06 v -0.059 l -0.06,-0.06 h -0.06 l -0.06,-0.06 h -0.06 v -0.06 h -0.06 l -0.061,-0.06 h -0.059 l -0.06,-0.121 h -0.06 l -0.06,-0.059 h -0.06 v -0.061 h -0.06 l -0.06,-0.059 H -141 l -0.061,-0.06 v -0.06 h -0.059 l -0.06,-0.06 h -0.06 l -0.06,-0.061 -0.06,-0.059 h -0.06 v -0.061 h -0.06 l -0.12,-0.119 h -0.06 l -0.12,-0.12 h -0.06 l -0.24,-0.24 h -0.06 l -0.18,-0.18 h -0.06 l -0.12,-0.12 h -0.061 l -0.179,-0.181 h -0.06 l -0.241,-0.239 h -0.059 l -0.12,-0.12 -0.12,-0.061 -0.12,-0.12 h -0.061 l -0.059,-0.059 -0.06,-0.06 -0.12,-0.12 c -0.39,-0.431 -0.21,-0.04 -0.6,-0.48 l -0.12,-0.12 h -0.061 v -0.06 h -0.059 v -0.061 h -0.06 l -0.54,0.481 -0.24,0.18 -0.24,0.24 -0.3,0.179 c -3.71,2.901 -7.77,5.451 -12.12,7.38 l -0.961,0.42 -1.019,0.421 c -6,2.449 -10.83,3.31 -16.981,4.199 l -0.839,0.121 -3.24,0.48 -1.68,0.3 c -21.26,3.42 -42.71,8.55 -63.18,15.24 l -6.36,2.04 c -9.9,3.22 -19.59,6.01 -28.44,11.64 l -1.62,1.08 -0.54,0.42 -0.48,0.36 -0.54,0.359 c -2.581,2.201 -6.24,4.861 -8.1,7.741 l -0.36,0.48 c -4.42,6.44 -8.45,12.65 -11.94,19.68 l -0.72,1.38 -1.98,4.139 c -5.78,12.551 -9.72,25.941 -11.76,39.601 l -0.24,1.56 -0.24,1.5 c -4.34,43.78 -8.21,87.71 -12.36,131.52 l -1.26,13.38 -1.26,13.44 -1.2,13.38 -1.26,13.38 3.06,0.48 c 65.079,9.77 128.52,28.93 188.28,56.4 l 0.66,0.36 0.72,-0.36 c 59.7,-27.46 123.27,-46.66 188.28,-56.4 l 3.059,-0.48 -0.179,-1.68 C 42.439,202.79 37.54,150.65 32.64,98.52 L 32.58,97.68 32.52,96.84 32.399,96 32.279,94.319 C 31.84,90.14 31.439,85.91 31.08,81.72 V 81.479 L 31.02,81.3 V 80.88 L 30.96,80.64 V 80.22 L 30.899,80.04 V 79.5 L 30.84,79.38 V 78.779 L 30.779,78.66 V 78.18 L 30.72,78.06 v -0.6 l -0.06,-0.061 v -0.54 L 30.6,76.8 V 76.319 L 30.54,76.2 V 75.6 L 30.479,75.54 V 75.06 L 30.42,74.939 V 74.52 L 30.359,74.34 V 74.16 L 30.3,73.92 C 30.14,72.149 29.88,70.39 29.58,68.64 V 68.46 L 29.52,68.279 V 68.1 L 29.46,67.859 C 28.229,59.88 26.51,52.26 23.88,44.52 L 23.819,44.34 23.76,44.16 23.699,43.979 23.64,43.8 C 21.189,36.13 18.029,28.81 14.279,21.779 L 14.22,21.6 14.1,21.42 14.04,21.24 13.92,21.12 c -0.76,-1.6 -1.771,-3.221 -2.58,-4.801 L 11.22,16.14 11.1,16.02 11.04,15.84 10.92,15.66 10.859,15.479 10.739,15.359 10.68,15.18 10.56,15 10.439,14.88 10.38,14.7 10.26,14.52 10.199,14.46 V 14.399 L 10.14,14.279 10.08,14.22 10.02,14.04 9.899,13.92 9.779,13.74 9.72,13.62 9.6,13.439 9.54,13.26 9.42,13.14 9.3,12.96 9.18,12.72 9.12,12.66 9.06,12.6 9,12.479 V 12.42 L 8.88,12.3 8.819,12.18 8.76,12.12 V 12.06 L 8.699,11.939 8.64,11.88 8.58,11.819 8.52,11.7 8.399,11.58 V 11.46 L 8.279,11.34 8.22,11.22 8.16,11.16 8.1,11.1 8.04,10.979 V 10.92 L 7.979,10.859 7.92,10.74 7.8,10.62 7.739,10.5 7.68,10.439 7.62,10.319 7.56,10.26 V 10.2 L 7.5,10.08 7.38,9.96 7.319,9.84 7.199,9.72 7.14,9.6 7.08,9.54 7.02,9.42 6.96,9.359 V 9.3 L 6.899,9.18 6.84,9.12 6.779,9 6.66,8.88 6.6,8.76 6.54,8.7 6.479,8.58 6.359,8.46 6.3,8.34 6.239,8.279 6.18,8.16 6.12,8.1 6.06,7.979 V 7.92 L 6,7.859 5.939,7.74 5.88,7.68 5.819,7.56 5.76,7.5 5.699,7.38 5.64,7.319 5.58,7.26 5.52,7.14 5.46,7.08 5.399,6.96 5.34,6.899 5.279,6.779 C 4.93,6.3 4.609,5.76 4.26,5.279 V 5.22 H 4.199 V 5.16 L 4.14,5.1 V 5.04 H 4.08 V 4.979 L 4.02,4.92 V 4.859 H 3.96 V 4.8 L 3.84,4.68 V 4.62 H 3.779 V 4.5 L 3.66,4.38 V 4.319 H 3.6 V 4.26 H 3.54 V 4.14 H 3.479 V 4.08 L 3.359,3.96 V 3.899 L 3.3,3.84 3.239,3.779 V 3.72 L 3.18,3.66 3.12,3.6 V 3.54 L 3,3.42 V 3.359 H 2.939 V 3.3 L 2.819,3.18 V 3.12 H 2.76 V 3.06 L 2.699,3 V 2.939 H 2.64 V 2.88 L 2.58,2.819 V 2.76 H 2.52 V 2.7 H 2.46 V 2.64 L 2.399,2.58 V 2.52 H 2.34 V 2.46 H 2.279 V 2.399 L 2.22,2.34 V 2.279 H 2.16 V 2.22 H 2.1 V 2.16 H 2.04 V 2.1 L 1.979,2.04 V 1.979 H 1.92 V 1.92 H 1.859 V 1.859 H 1.8 L 1.8,1.8 1.68,1.68 1.62,1.62 V 1.56 H 1.56 V 1.5 H 1.5 V 1.439 H 1.439 V 1.38 H 1.38 V 1.319 H 1.319 V 1.26 H 1.26 V 1.2 L 1.199,1.14 H 1.14 V 1.08 L 1.08,1.02 1.02,0.96 H 0.96 V 0.899 L 0.899,0.84 0.84,0.779 H 0.779 V 0.72 L 0.72,0.66 H 0.66 V 0.6 H 0.6 V 0.54 L 0.479,0.42 H 0.42 V 0.359 H 0.359 V 0.3 L 0.239,0.18 H 0.18 V 0.12 H 0.12 V 0.06 H 0.06 L 0.06,0 Z"/></g></g></g></g></g></g><g id="g36"><g clip-path="url(#clipPath42)" id="g38"><g id="g44"><g id="g46"/><g id="g94"><g id="g92" clip-path="url(#clipPath50)"><g id="g54" transform="translate(349.5596,448.2202)"><path id="path52" style="fill:#f28d3b;fill-opacity:1;fill-rule:nonzero;stroke:none" d="m 0,0 -5.22,7.44 -7.439,-5.22 5.22,-7.44 z m 2.4,13.8 -5.16,7.44 -7.439,-5.16 5.159,-7.44 z M 4.86,27.66 0.181,34.32 -7.26,29.1 -2.579,22.44 Z M 5.7,-8.1 0.48,-0.66 -6.96,-5.88 -1.739,-13.32 Z M 8.101,5.7 2.881,13.14 -4.5,7.92 0.66,0.48 Z m 2.46,13.8 -5.22,7.44 -7.441,-5.22 5.22,-7.38 z m 0.78,-35.76 -5.16,7.44 -7.441,-5.22 5.22,-7.44 z M 12.96,33.36 8.341,39.96 0.9,34.8 5.521,28.14 Z M 13.801,-2.4 8.58,4.98 1.141,-0.18 6.36,-7.62 Z M 16.261,11.4 11.04,18.84 3.601,13.62 8.82,6.18 Z m 2.399,13.8 -5.22,7.44 -7.379,-5.22 5.16,-7.44 z m 0.84,-35.76 -5.22,7.44 -7.439,-5.22 5.22,-7.44 z M 21.12,39 16.44,45.66 9,40.5 13.681,33.84 Z M 21.9,3.24 16.74,10.68 9.301,5.52 l 5.22,-7.44 z m 3.3,-21.9 -5.22,7.38 -7.44,-5.16 5.221,-7.44 z m 1.62,49.56 -5.219,7.44 -7.441,-5.22 5.221,-7.44 z M 27.601,-4.86 22.44,2.58 15,-2.64 l 5.16,-7.44 z m 1.62,49.56 -4.62,6.66 -7.441,-5.22 4.62,-6.6 z m 1.679,-71.52 -5.219,7.44 -7.441,-5.22 5.22,-7.441 z m 2.401,13.8 -5.221,7.44 -7.38,-5.16 5.16,-7.44 z M 34.921,36.6 29.7,44.04 22.261,38.82 27.48,31.38 Z M 35.761,0.84 30.54,8.28 23.101,3.06 28.32,-4.38 Z M 37.381,50.4 32.7,57.06 25.261,51.84 29.94,45.18 Z M 39,-21.12 l -5.22,7.44 -7.439,-5.22 5.22,-7.44 z m 1.62,49.56 -5.22,7.44 -7.44,-5.16 5.221,-7.44 z m 0.84,-35.76 -5.22,7.44 -7.439,-5.22 5.22,-7.38 z m 1.561,49.62 -5.161,7.44 -7.439,-5.22 5.22,-7.44 z m 0.839,-35.76 -5.219,7.38 -7.38,-5.16 5.16,-7.44 z m 0.3,-34.98 -4.68,6.6 -7.44,-5.16 4.681,-6.661 z m 1.32,84.54 -4.679,6.66 -7.38,-5.22 4.619,-6.66 z m 0.84,-35.76 -5.219,7.44 -7.441,-5.22 5.221,-7.44 z m 0.781,-35.76 -5.161,7.44 -7.44,-5.22 5.221,-7.44 z m 2.46,13.8 -5.22,7.44 L 36.9,0.6 42.12,-6.84 Z M 51.181,48 45.96,55.38 38.521,50.22 43.74,42.78 Z m 0.84,-35.82 -5.22,7.44 -7.441,-5.16 5.22,-7.44 z m 0.24,-34.98 -4.62,6.66 -7.441,-5.22 4.62,-6.6 z m 2.16,48.84 -5.221,7.44 -7.38,-5.22 5.16,-7.44 z m 0.84,-35.76 -5.221,7.38 -7.439,-5.16 5.219,-7.44 z M 57.66,4.08 52.5,11.52 45.061,6.3 50.28,-1.14 Z m 1.62,49.56 -5.16,7.44 -7.439,-5.16 5.16,-7.44 z m 1.141,-70.74 -4.681,6.66 -7.439,-5.22 4.679,-6.6 z M 63.36,-4.08 58.2,3.36 50.761,-1.8 55.921,-9.24 Z M 67.44,59.34 62.221,66.78 54.78,61.56 60,54.18 Z m 1.081,-70.74 -4.68,6.66 -7.381,-5.22 4.62,-6.66 z m 3,13.02 -5.22,7.44 -7.441,-5.22 5.22,-7.38 z m 1.62,49.62 -5.22,7.44 -7.441,-5.22 5.22,-7.44 z M 76.62,-5.7 72,0.96 64.561,-4.26 69.24,-10.92 Z m 2.16,48.78 -5.16,7.44 -7.439,-5.22 5.219,-7.38 z m 3.18,14.34 -5.22,7.44 -8.16,-5.7 5.221,-7.44 z M 87.601,49.26 82.44,56.7 74.28,51 79.5,43.56 Z m 5.7,-8.1 -5.16,7.44 -8.161,-5.7 5.22,-7.44 z M 95.881,18.72 90.66,26.16 83.221,20.94 88.44,13.5 Z M 99,33 93.78,40.44 85.681,34.74 90.9,27.3 Z M -7.479,29.44 c 0.33,0.42 0.65,0.84 0.979,1.24 l 0.021,-0.02 6.179,4.32 -1.05,1.57 c 0.191,0.2 0.38,0.4 0.571,0.59 l 1.2,-1.68 7.439,5.22 -1.95,2.72 c 0.21,0.19 0.431,0.37 0.651,0.55 l 1.96,-2.79 7.439,5.22 -2.21,3.16 c 0.24,0.17 0.471,0.33 0.71,0.5 l 2.221,-3.18 7.38,5.22 -1.97,2.8 c 0.25,0.15 0.5,0.29 0.76,0.43 l 1.929,-2.75 7.441,5.22 -1.2,1.68 -0.01,0.02 c 0.26,0.12 0.51,0.23 0.769,0.35 l 1.101,-1.57 6.64,4.61 0.019,0.01 c 0.601,0.2 1.21,0.4 1.811,0.59 l 4.849,-6.89 7.38,5.22 -2.819,4.07 c 0.309,0.07 0.609,0.12 0.91,0.17 l 2.63,-3.76 6.889,4.8 h 0.01 c 0.611,0.02 1.21,0.03 1.821,0.03 l 5.08,-7.29 8.149,5.71 0.03,0.02 c 0.401,-0.1 0.79,-0.2 1.18,-0.32 v -0.01 l 5.16,-7.32 4.261,3 C 87.15,60.73 87.4,60.55 87.66,60.36 l -4.559,-3.18 5.219,-7.44 5.93,4.13 c 0.16,-0.22 0.311,-0.44 0.46,-0.67 l -5.909,-4.12 5.22,-7.44 4.53,3.16 c 0.08,-0.29 0.159,-0.58 0.22,-0.88 h -0.01 l -4.261,-3 5.141,-7.29 C 99.62,33.2 99.591,32.77 99.54,32.34 L 99.5,32.31 91.381,26.64 96.48,19.32 h 0.01 c -0.21,-0.57 -0.429,-1.13 -0.66,-1.69 l -0.01,0.01 -6.899,-4.8 2.64,-3.78 0.019,-0.01 C 91.431,8.77 91.261,8.49 91.101,8.21 L 91.08,8.22 88.261,12.3 80.83,7.12 l -0.489,0.69 7.439,5.21 -5.219,7.44 -7.43,-5.22 -0.49,0.7 7.439,5.18 -5.229,7.47 0.71,0.49 5.179,-7.42 7.441,5.16 -5.221,7.44 -7.399,-5.18 -0.5,0.71 7.419,5.19 -5.16,7.44 -7.439,-5.22 5.18,-7.41 -0.701,-0.5 -5.2,7.43 -7.439,-5.22 5.2,-7.41 -0.681,-0.47 -5.179,7.4 -7.441,-5.22 5.191,-7.39 7.429,5.21 0.5,-0.71 -7.429,-5.2 V 17.7 h 0.009 l 5.16,-7.44 7.47,5.2 0.5,-0.7 L 67.021,9.54 72.181,2.1 79.65,7.33 80.131,6.64 72.66,1.44 77.341,-5.22 84.78,0 80.131,6.64 80.83,7.12 85.65,0.25 c -0.4,-0.52 -0.799,-1.03 -1.2,-1.53 l -0.029,0.02 -6.601,-4.68 1.14,-1.54 c -0.109,-0.13 -0.239,-0.25 -0.359,-0.38 l -0.26,-0.28 -1.181,1.72 -7.439,-5.16 1.939,-2.77 c -0.229,-0.21 -0.45,-0.4 -0.68,-0.59 l -1.98,2.82 -7.439,-5.16 2.219,-3.18 0.01,-0.02 c -0.22,-0.15 -0.439,-0.31 -0.67,-0.46 l -2.22,3.18 -7.44,-5.22 1.971,-2.8 c -0.25,-0.15 -0.51,-0.29 -0.76,-0.43 l -1.931,2.75 -7.439,-5.22 1.179,-1.651 c -0.27,-0.129 -0.549,-0.259 -0.82,-0.37 l -1.019,1.54 -6.201,-4.349 c -0.769,-0.27 -1.54,-0.52 -2.32,-0.76 v 0.01 l -4.739,6.72 -7.441,-5.161 2.731,-3.909 c -0.191,-0.04 -0.381,-0.08 -0.57,-0.11 l -0.361,-0.071 v 0.011 l -2.519,3.6 -6.5,-4.59 C 16.21,-37.791 15.7,-37.8 15.181,-37.8 l 0.139,0.099 7.42,5.181 -5.219,7.44 -7.401,-5.19 -0.71,-0.5 -7.79,-5.47 c -0.359,0.1 -0.72,0.199 -1.069,0.3 l 8.38,5.89 -5.21,7.43 L -9,-31.56 c -0.27,0.18 -0.529,0.359 -0.779,0.54 l 13.019,9.06 -5.219,7.44 -14.34,-10.02 -0.01,-0.01 -0.231,0.31 -0.24,0.36 14.34,10.08 -5.22,7.44 -12.939,-9.11 c -0.091,0.3 -0.171,0.61 -0.24,0.91 l 12.7,8.86 -5.16,7.44 -8.401,-5.88 h -0.03 c 0.011,0.38 0.04,0.76 0.08,1.14 h 0.011 l 7.8,5.46 -4.901,7 c 0.09,0.27 0.191,0.53 0.29,0.8 0.021,0.05 0.04,0.1 0.061,0.16 0.17,0.44 0.349,0.88 0.519,1.32 l 6.491,4.52 -2.5,3.57 c 0.16,0.29 0.32,0.57 0.479,0.84 l 2.74,-3.93 7.38,5.22 -4.729,6.76 c 0.189,0.24 0.37,0.48 0.55,0.72 M 60.61,17.21 53.16,12 58.381,4.56 65.82,9.78 Z M 25.551,16.86 h 0.01 l 5.16,-7.44 7.439,5.22 -5.16,7.44 -7.449,-5.21 z m -15.95,-46.441 7.439,5.221 -5.159,7.44 -7.441,-5.22 z m -27.97,39.951 5.229,-7.43 7.441,5.22 -5.221,7.38 -7.439,-5.16 z m 43.22,6 -7.451,-5.21 5.22,-7.44 7.441,5.22 z m 0.21,1.23 7.399,5.2 -5.159,7.38 -7.441,-5.16 z M 24.36,17.11 19.141,24.54 11.7,19.32 16.921,11.88 24.36,17.1 Z m 35.741,0.8 -5.201,7.41 -7.44,-5.22 5.221,-7.38 z m -15.88,24.14 5.219,-7.43 7.441,5.23 0.479,-0.69 -7.439,-5.2 5.22,-7.44 7.439,5.22 -5.22,7.42 0.691,0.48 5.189,-7.42 7.441,5.16 -5.221,7.44 -7.409,-5.18 -0.481,0.69 7.41,5.21 -5.219,7.44 -7.38,-5.22 5.189,-7.43 -0.689,-0.48 -5.221,7.43 -7.439,-5.22 z m -0.66,-0.47 -7.441,-5.22 5.16,-7.38 7.441,5.16 z"/></g><g id="g58" transform="translate(430.3896,455.3398)"><path id="path56" style="fill:#f28d3b;fill-opacity:1;fill-rule:nonzero;stroke:none" d="M 0,0 -0.699,-0.48 -1.18,0.21 -0.489,0.69 Z"/></g><g id="g62" transform="translate(424.6904,463.46)"><path id="path60" style="fill:#f28d3b;fill-opacity:1;fill-rule:nonzero;stroke:none" d="M 0,0 5.21,-7.43 4.52,-7.91 -0.681,-0.48 Z"/></g><g id="g66" transform="translate(427.1201,477.2998)"><path id="path64" style="fill:#f28d3b;fill-opacity:1;fill-rule:nonzero;stroke:none" d="m 0,0 -0.71,-0.49 -0.49,0.7 0.7,0.5 z"/></g><g id="g70" transform="translate(426.4102,476.8101)"><path id="path68" style="fill:#f28d3b;fill-opacity:1;fill-rule:nonzero;stroke:none" d="m 0,0 -7.43,-5.21 -0.5,0.71 7.44,5.2 z"/></g><g id="g74" transform="translate(424.2002,464.1602)"><path id="path72" style="fill:#f28d3b;fill-opacity:1;fill-rule:nonzero;stroke:none" d="m 0,0 0.49,-0.7 -0.68,-0.48 -0.5,0.7 z"/></g><g id="g78" transform="translate(418.9805,471.6001)"><path id="path76" style="fill:#f28d3b;fill-opacity:1;fill-rule:nonzero;stroke:none" d="m 0,0 5.22,-7.44 -0.691,-0.48 -5.21,7.45 z"/></g><g id="g82" transform="translate(418.9805,471.6001)"><path id="path80" style="fill:#f28d3b;fill-opacity:1;fill-rule:nonzero;stroke:none" d="m 0,0 -0.681,-0.47 -0.5,0.71 0.681,0.47 z"/></g><g id="g86" transform="translate(407.1299,488.5498)"><path id="path84" style="fill:#f28d3b;fill-opacity:1;fill-rule:nonzero;stroke:none" d="m 0,0 0.48,-0.69 -0.69,-0.48 -0.479,0.69 z"/></g><g id="g90" transform="translate(364.8799,410.5195)"><path id="path88" style="fill:#f28d3b;fill-opacity:1;fill-rule:nonzero;stroke:none" d="M 0,0 -0.14,-0.1 C -0.42,-0.109 -0.7,-0.109 -0.979,-0.109 V -0.1 l -4.92,7.021 -0.011,0.01 0.71,0.5 0.02,-0.031 5.16,-7.379 z"/></g></g></g></g></g></g><g transform="translate(278.6401,458.4199)" id="g96"><path id="path98" style="fill:none;stroke:#000000;stroke-width:0.54000002;stroke-linecap:round;stroke-linejoin:round;stroke-miterlimit:10;stroke-dasharray:none;stroke-opacity:1" d="M 0,0 V -0.12"/></g><g id="g100"><g clip-path="url(#clipPath106)" id="g102"><g id="g108"><g id="g110"/><g id="g158"><g id="g156" clip-path="url(#clipPath114)"><g id="g118" transform="translate(112.9199,475.52)"><path id="path116" style="fill:#f28d3b;fill-opacity:1;fill-rule:nonzero;stroke:none" d="M 0,0 5.22,7.44 -2.94,13.14 -8.1,5.7 Z m 2.46,-13.8 5.16,7.44 -7.44,5.22 -5.16,-7.44 z M 5.7,8.16 10.92,15.6 2.76,21.3 -2.46,13.86 Z m 5.7,8.1 5.16,7.44 -8.1,5.7 -5.22,-7.44 z m 5.7,8.16 5.16,7.44 -8.1,5.7 -5.22,-7.44 z m 2.4,-13.8 5.22,7.38 -7.44,5.22 -5.22,-7.44 z m 2.16,-48.84 4.68,6.66 -7.44,5.22 -4.68,-6.66 z m 3.54,56.94 5.22,7.44 -7.44,5.22 -5.22,-7.44 z m 1.62,-49.56 5.22,7.38 -7.44,5.22 -5.22,-7.44 z m 3,-13.08 4.62,6.66 -7.44,5.22 -4.62,-6.66 z m 1.08,70.8 5.22,7.38 -7.44,5.22 -5.22,-7.44 z m 4.02,-63.42 5.22,7.44 -7.44,5.16 -5.22,-7.44 z m 3,-13.02 4.68,6.6 -7.44,5.22 -4.68,-6.66 z m 1.08,70.74 5.22,7.44 -7.44,5.16 -5.22,-7.44 z m 1.62,-49.62 5.22,7.44 -7.44,5.22 -5.22,-7.44 z m 2.46,-13.8 5.16,7.44 -7.38,5.16 -5.22,-7.38 z m 0.78,35.76 5.22,7.44 -7.44,5.22 -5.16,-7.44 z m 2.16,-48.78 4.68,6.6 -7.44,5.22 -4.62,-6.66 z m 0.3,34.98 5.22,7.44 -7.44,5.16 -5.22,-7.44 z m 0.84,35.76 5.16,7.44 -7.38,5.16 -5.22,-7.38 z m 1.62,-49.62 5.16,7.44 -7.44,5.22 -5.16,-7.44 z m 2.4,-13.8 5.22,7.44 -7.44,5.22 -5.22,-7.44 z m 0.84,35.76 5.22,7.44 -7.44,5.22 -5.22,-7.44 z m 0.84,35.76 4.62,6.66 -7.44,5.22 -4.62,-6.66 z m 1.32,-84.54 4.62,6.66 -7.38,5.16 -4.68,-6.6 z m 0.24,34.98 5.22,7.44 -7.44,5.16 -5.16,-7.38 z m 0.84,35.76 5.22,7.44 -7.44,5.22 L 47.82,15 Z m 1.62,-49.56 5.22,7.38 -7.44,5.22 -5.22,-7.44 z m 0.84,35.76 5.16,7.44 -7.38,5.16 -5.22,-7.44 z m 1.62,-49.62 5.16,7.44 -7.44,5.22 -5.16,-7.44 z m 1.62,71.52 4.68,6.66 -7.44,5.22 -4.68,-6.66 z m 1.62,-49.56 5.22,7.44 -7.44,5.22 -5.22,-7.44 z m 0.84,35.76 5.16,7.44 -7.44,5.22 -5.16,-7.44 z m 1.56,-49.56 5.22,7.44 -7.44,5.16 -5.16,-7.44 z m 2.46,-13.86 5.22,7.44 -7.44,5.22 -5.22,-7.44 z m 1.62,71.58 4.68,6.6 -7.44,5.22 -4.62,-6.66 z m 1.62,-49.62 5.22,7.44 -7.44,5.22 -5.22,-7.44 z m 0.84,35.76 5.22,7.44 -7.44,5.22 -5.22,-7.44 z m 1.62,-49.56 5.22,7.44 -7.44,5.16 -5.22,-7.38 z m 3.24,21.96 5.22,7.44 -7.44,5.16 -5.22,-7.44 z m 0.84,35.76 4.62,6.66 -7.38,5.16 -4.68,-6.66 z m 1.62,-49.62 5.16,7.44 -7.38,5.22 -5.22,-7.44 z m 0.78,35.76 5.22,7.44 -7.44,5.22 -5.16,-7.44 z m 2.46,-13.8 5.22,7.44 -7.44,5.22 -5.22,-7.44 z m 2.46,-13.8 5.16,7.44 -7.44,5.16 -5.16,-7.38 z M 85.32,0.84 90,7.5 82.56,12.66 77.88,6.06 Z m 1.62,-49.62 5.22,7.44 -7.44,5.22 -5.22,-7.44 z m 0.84,35.82 5.22,7.38 -7.44,5.22 -5.22,-7.44 z m 2.4,-13.86 5.22,7.44 -7.44,5.22 -5.16,-7.44 z m 2.46,-13.8 5.22,7.44 -7.44,5.22 -5.22,-7.44 z M 93.48,-4.86 98.1,1.8 90.66,7.02 86.04,0.36 Z m 2.4,-13.8 5.22,7.44 -7.44,5.16 -5.22,-7.44 z m 2.46,-13.86 5.22,7.44 -7.44,5.22 -5.22,-7.44 z m -16.38,-24.84 8.39,-5.87 c -0.35,-0.11 -0.71,-0.21 -1.07,-0.31 l -7.8,5.46 -0.71,0.49 -7.45,5.21 -5.16,-7.44 7.38,-5.16 0.18,-0.12 c -0.54,0 -1.08,0.01 -1.61,0.03 l -6.43,4.59 -2.58,-3.6 -0.3,0.06 c -0.19,0.03 -0.38,0.07 -0.57,0.11 l 2.73,3.91 -7.44,5.16 -4.74,-6.72 -0.01,-0.02 c -0.76,0.23 -1.52,0.48 -2.27,0.74 l -6.24,4.38 -1.08,-1.53 c -0.26,0.11 -0.52,0.23 -0.77,0.34 l 1.13,1.67 -7.44,5.22 -1.87,-2.75 c -0.25,0.13 -0.51,0.27 -0.76,0.43 l 1.97,2.8 -7.44,5.22 -2.22,-3.18 c -0.24,0.16 -0.47,0.32 -0.71,0.49 l 2.21,3.17 -7.38,5.16 -2.02,-2.8 c -0.22,0.19 -0.44,0.37 -0.66,0.56 l 1.96,2.78 -7.44,5.16 -1.18,-1.72 -0.26,0.28 c -0.12,0.13 -0.25,0.25 -0.36,0.38 l 1.14,1.54 -6.65,4.67 -0.01,0.01 c -0.4,0.49 -0.79,0.99 -1.18,1.5 l 4.82,6.88 0.7,-0.49 -4.64,-6.63 7.44,-5.22 4.62,6.66 -7.42,5.19 0.48,0.68 7.42,-5.21 5.22,7.44 -7.43,5.22 0.49,0.69 7.42,-5.19 5.21,7.42 -7.43,5.2 0.51,0.72 7.44,-5.2 5.19,7.4 -7.44,5.22 -5.19,-7.42 -0.71,0.5 5.18,7.4 L 19.74,9.42 14.53,1.97 13.8,2.48 19.02,9.9 11.58,15.12 6.36,7.68 13.8,2.48 13.3,1.76 5.88,6.96 0.72,-0.48 8.1,-5.64 l 5.2,7.4 0.73,-0.5 -5.21,-7.44 7.41,-5.18 -0.48,-0.69 -7.41,5.21 -5.22,-7.44 7.42,-5.21 -0.48,-0.69 -7.42,5.18 -2.86,-4.05 c -0.17,0.28 -0.33,0.55 -0.49,0.83 l 2.63,3.76 -6.85,4.77 c -0.24,0.56 -0.46,1.13 -0.67,1.7 l 0.02,0.01 5.1,7.32 L -8.64,5 -8.65,5.01 c -0.05,0.44 -0.08,0.87 -0.1,1.31 l 5.15,7.3 -4.3,2.99 c 0.07,0.3 0.15,0.6 0.24,0.9 l 4.54,-3.17 5.22,7.44 -5.92,4.13 c 0.15,0.23 0.3,0.45 0.46,0.67 l 5.94,-4.14 5.16,7.44 -4.5,3.18 -0.01,0.01 c 0.25,0.18 0.5,0.35 0.76,0.51 l 4.29,-2.98 5.09,7.3 c 0.41,0.13 0.83,0.25 1.25,0.35 l 0.03,-0.02 8.09,-5.71 5.15,7.3 c 0.6,0 1.2,-0.01 1.81,-0.03 v -0.01 l 6.9,-4.8 2.62,3.76 c 0.3,-0.04 0.61,-0.1 0.91,-0.17 l -2.87,-4.07 7.44,-5.22 4.8,6.9 c 0.3,-0.09 0.6,-0.19 0.9,-0.3 0.34,-0.1 0.68,-0.22 1.01,-0.34 l 6.55,-4.58 1.15,1.55 c 0.26,-0.11 0.52,-0.23 0.77,-0.35 l -1.2,-1.68 7.44,-5.22 1.88,2.77 c 0.26,-0.14 0.51,-0.29 0.76,-0.43 l -1.98,-2.82 7.44,-5.22 2.21,3.17 c 0.24,-0.16 0.48,-0.33 0.71,-0.5 l -2.2,-3.15 7.44,-5.22 1.92,2.82 c 0.23,-0.18 0.46,-0.38 0.69,-0.59 l -1.95,-2.71 7.44,-5.22 1.14,1.68 0.03,0.03 c 0.2,-0.2 0.4,-0.41 0.6,-0.62 L 91.2,7.68 97.38,3.36 97.39,3.37 c 0.33,-0.4 0.64,-0.8 0.95,-1.21 0.19,-0.24 0.37,-0.47 0.55,-0.71 l -0.01,-0.01 -4.74,-6.78 7.44,-5.22 2.73,3.91 c 0.16,-0.28 0.32,-0.55 0.48,-0.83 l -2.49,-3.56 6.48,-4.56 c 0.18,-0.43 0.35,-0.87 0.51,-1.3 0.13,-0.32 0.25,-0.63 0.37,-0.95 l -4.96,-6.99 7.86,-5.46 c 0.04,-0.38 0.07,-0.76 0.08,-1.14 h -0.02 l -8.4,5.88 L 99,-33 l 12.74,-8.85 c -0.07,-0.3 -0.15,-0.6 -0.24,-0.9 l -12.98,9.09 -5.16,-7.44 14.34,-10.08 -0.24,-0.36 -0.23,-0.31 -0.01,0.01 -14.4,10.02 -5.16,-7.44 12.96,-9.06 0.01,-0.02 c -0.24,-0.18 -0.49,-0.35 -0.74,-0.52 l -12.71,8.94 z m -15.43,47.15 7.45,-5.21 5.16,7.44 -7.44,5.22 -5.16,-7.44 z m -0.7,0.5 5.21,7.43 -7.44,5.16 -5.22,-7.38 z m -35.56,-0.41 -5.19,-7.4 7.44,-5.22 5.16,7.44 z m 17.07,24.4 -5.22,-7.44 7.44,-5.16 5.22,7.38 z m -0.66,0.47 v 0.01 l -7.44,5.22 -5.22,-7.43 -0.69,0.48 5.19,7.43 -7.44,5.22 -5.16,-7.44 7.41,-5.21 -0.49,-0.7 -7.46,5.19 -5.16,-7.44 7.44,-5.16 5.18,7.41 0.69,-0.48 -5.21,-7.41 7.44,-5.22 5.22,7.44 -7.45,5.19 0.49,0.7 7.44,-5.23 z m 19.36,-25.69 -5.2,-7.42 7.44,-5.22 5.16,7.44 z m 15.21,-45.93 5.21,7.43 -7.44,5.22 -5.22,-7.44 z m -50.45,47.48 7.42,-5.19 5.16,7.38 -7.44,5.22 z m 78.45,-7.57 -0.05,0.04 -7.38,5.16 -5.22,-7.38 7.44,-5.22 z m -43.91,6.51 v 0.01 l -7.44,5.22 -5.22,-7.44 7.44,-5.22 z"/></g><g id="g122" transform="translate(194.3999,417.4404)"><path id="path120" style="fill:#f28d3b;fill-opacity:1;fill-rule:nonzero;stroke:none" d="M 0,0 -4.98,-7.021 V -7.03 c -0.26,0 -0.52,0 -0.78,0.009 l -0.18,0.121 5.22,7.379 0.01,0.01 z"/></g><g id="g126" transform="translate(146.9399,488.0698)"><path id="path124" style="fill:#f28d3b;fill-opacity:1;fill-rule:nonzero;stroke:none" d="m 0,0 -0.49,-0.7 -0.69,0.48 0.49,0.7 z"/></g><g id="g130" transform="translate(135.5698,471.8198)"><path id="path128" style="fill:#f28d3b;fill-opacity:1;fill-rule:nonzero;stroke:none" d="m 0,0 -0.51,-0.72 -0.71,0.49 0.51,0.73 z"/></g><g id="g134" transform="translate(135.0601,471.1001)"><path id="path132" style="fill:#f28d3b;fill-opacity:1;fill-rule:nonzero;stroke:none" d="m 0,0 -5.2,-7.43 -0.71,0.49 5.2,7.43 z"/></g><g id="g138" transform="translate(134.8599,472.3198)"><path id="path136" style="fill:#f28d3b;fill-opacity:1;fill-rule:nonzero;stroke:none" d="m 0,0 -0.51,-0.73 -7.4,5.19 0.5,0.71 z"/></g><g id="g142" transform="translate(129.8599,463.6699)"><path id="path140" style="fill:#f28d3b;fill-opacity:1;fill-rule:nonzero;stroke:none" d="m 0,0 -0.49,-0.69 -0.7,0.49 0.48,0.69 z"/></g><g id="g146" transform="translate(129.3701,462.98)"><path id="path144" style="fill:#f28d3b;fill-opacity:1;fill-rule:nonzero;stroke:none" d="m 0,0 -5.21,-7.45 -0.7,0.5 5.21,7.44 z"/></g><g id="g150" transform="translate(126.7202,478)"><path id="path148" style="fill:#f28d3b;fill-opacity:1;fill-rule:nonzero;stroke:none" d="m 0,0 0.73,-0.51 -0.5,-0.71 -0.73,0.5 z"/></g><g id="g154" transform="translate(123.46,456.0298)"><path id="path152" style="fill:#f28d3b;fill-opacity:1;fill-rule:nonzero;stroke:none" d="m 0,0 0.7,-0.5 -0.48,-0.68 -0.7,0.49 z"/></g></g></g></g></g></g><g id="g160"><g clip-path="url(#clipPath166)" id="g162"><g id="g168"><g id="g170"/><g id="g194"><g id="g192" clip-path="url(#clipPath174)"><g id="g178" transform="translate(146.7002,413.0596)"><path id="path176" style="fill:#f28d3b;fill-opacity:1;fill-rule:nonzero;stroke:none" d="m 0,0 c -8.97,5.4 -17.91,11.181 -25.26,18.72 l -0.66,0.6 -0.66,0.66 -0.6,0.661 -0.66,0.659 -0.66,0.721 C -39.09,33.97 -49.87,49.911 -50.64,66.36 v 0.96 c -0.2,10.93 3.38,23.721 11.88,31.08 l 0.3,0.3 1.44,1.2 1.44,1.201 0.72,0.54 c 13.74,10.089 27.05,10.65 43.32,7.559 l 1.8,-0.36 c 20.21,-4.319 36.29,-14.029 51.6,-27.719 l 0.66,-0.661 0.72,-0.66 1.32,-1.259 0.66,-0.661 c 12.64,-12.66 22.14,-28.549 27,-45.779 l 0.24,-0.901 0.42,-1.8 0.24,-0.9 C 95.2,20.061 96.94,13.5 102,6.301 l 0.54,-0.78 0.54,-0.72 c 4.42,-5.591 8.48,-9.011 14.52,-12.78 l 3.12,-2.041 3.06,-2.04 6.18,-4.08 v -0.009 L 127.65,-17.68 114.48,-9 C 104.02,-2.329 96.85,6.9 93.06,18.72 l -4.02,15.301 -1.56,4.62 c -6.71,18.15 -18.9,34.79 -34.32,46.5 l -3.9,2.94 -3.84,2.759 C 32.54,99.92 17.45,105.78 1.8,107.7 l -4.68,0.481 -3.36,0.179 c -12.38,0.321 -24.81,-4.96 -33.12,-14.16 l -2.16,-2.579 -1.68,-2.94 C -49.05,77.521 -49.73,64.5 -45.24,52.74 l 1.38,-3.119 2.04,-4.261 c 7.39,-14.16 17.63,-26.1 30.78,-35.219 l 3.9,-2.58 4.08,-2.76 C 13.43,-5.6 32.85,-11.46 52.38,-11.46 l 4.86,0.061 15.78,1.439 c 11.92,0.71 23.93,-3.269 33.3,-10.619 l 7.97,-5.931 -2.25,-1.479 -0.74,0.51 c -8.24,6.15 -14.3,11.169 -24.48,13.62 l -0.48,0.12 -0.42,0.12 -0.48,0.059 -0.42,0.121 -0.48,0.059 c -9.77,2.11 -17.77,-0.05 -27.66,-0.54 l -0.96,-0.059 h -0.9 c -8.64,-0.09 -17.32,0.58 -25.74,2.58 l -0.9,0.24 -0.9,0.18 -1.8,0.479 C 17.57,-8.38 8.99,-4.88 1.62,-0.899 l -0.78,0.42 z"/></g><g id="g182" transform="translate(246.7202,406.5195)"><path id="path180" style="fill:#f4f0e1;fill-opacity:1;fill-rule:nonzero;stroke:none" d="m 0,0 -0.06,0.54 -0.3,0.481 -2.76,3.059 -2.58,3.301 -2.4,3.42 -2.16,3.539 -1.92,3.66 -1.74,3.78 -0.3,0.48 -0.48,0.301 -0.54,0.12 -0.6,-0.181 -0.42,-0.299 -0.3,-0.48 -0.18,-0.54 c -0.95,-2.431 -2.23,-5 -3.72,-7.14 l -0.3,-0.48 -0.36,-0.42 C -22.6,10.9 -24.56,9.021 -26.52,7.2 L -27,6.841 l -0.36,-0.42 -0.12,-0.54 0.06,-0.601 0.3,-0.479 0.42,-0.301 0.54,-0.18 4.14,-0.299 4.14,-0.6 4.08,-0.78 4.02,-1.08 3.96,-1.321 3.84,-1.5 0.54,-0.12 0.54,0.061 0.48,0.299 0.3,0.481 z m -143.22,95.221 1.68,2.94 2.16,2.579 c 8.31,9.2 20.74,14.481 33.12,14.16 l 3.36,-0.179 4.68,-0.481 c 15.65,-1.92 30.74,-7.78 43.62,-16.86 l 3.84,-2.759 3.9,-2.94 c 15.42,-11.71 27.61,-28.35 34.32,-46.5 l 1.56,-4.62 4.02,-15.301 C -3.17,13.44 4,4.211 14.46,-2.46 l 13.17,-8.68 -13.36,-8.83 -7.97,5.931 C -3.07,-6.689 -15.08,-2.71 -27,-3.42 l -15.78,-1.439 -4.86,-0.061 c -19.53,0 -38.95,5.86 -55.44,16.261 l -4.08,2.76 -3.9,2.58 C -124.21,25.8 -134.45,37.74 -141.84,51.9 l -2.04,4.261 -1.38,3.119 c -4.49,11.761 -3.81,24.781 2.04,35.941 m 3.24,-0.241 c -15.33,-27.009 10.44,-60.81 32.28,-75.48 l 0.72,-0.479 0.66,-0.48 c 21.23,-14.99 61.51,-27.02 80.94,-3.121 l 0.3,0.48 0.36,0.42 0.6,0.96 0.36,0.48 0.24,0.48 0.3,0.481 c 6.48,11.59 4.5,25.46 -0.66,37.139 l -0.6,1.321 C -31.3,71.65 -43.04,84.101 -56.04,93.24 l -1.44,0.961 -0.66,0.48 -0.72,0.48 c -13.38,8.61 -28.74,14.829 -44.76,15.599 l -0.66,0.06 H -105 c -12.5,0.281 -25.43,-3.219 -33.36,-13.5 l -0.3,-0.48 -0.36,-0.48 -0.3,-0.42 -0.36,-0.48 z"/></g><g id="g186" transform="translate(246.6602,407.0596)"><path id="path184" style="fill:#f28d3b;fill-opacity:1;fill-rule:nonzero;stroke:none" d="m 0,0 0.06,-0.54 -0.12,-0.539 -0.3,-0.481 -0.48,-0.299 -0.54,-0.061 -0.54,0.12 -3.84,1.5 -3.96,1.321 -4.02,1.08 -4.08,0.78 -4.14,0.599 -4.14,0.3 -0.54,0.18 -0.42,0.301 -0.3,0.479 -0.06,0.601 0.12,0.54 0.36,0.42 0.48,0.359 c 1.96,1.82 3.92,3.7 5.4,5.941 l 0.36,0.42 0.3,0.479 c 1.49,2.141 2.77,4.71 3.72,7.141 l 0.18,0.54 0.3,0.48 0.42,0.299 0.6,0.181 0.54,-0.12 0.48,-0.301 0.3,-0.48 1.74,-3.78 1.92,-3.66 2.16,-3.539 2.4,-3.42 2.58,-3.301 2.76,-3.06 z"/></g><g id="g190" transform="translate(221.04,425.0601)"><path id="path188" style="fill:#f28d3b;fill-opacity:1;fill-rule:nonzero;stroke:none" d="m 0,0 c 12.28,19.98 -2.36,46.17 -16.86,60.72 l -0.72,0.66 -0.66,0.66 c -17.44,17.34 -46.23,31.63 -71.34,27.54 l -1.44,-0.24 -2.16,-0.54 c -13.97,-3.55 -22.99,-13.5 -23.76,-28.08 v -1.38 c -0.14,-16.27 10.04,-32.8 21.12,-44.04 l 0.66,-0.72 0.66,-0.66 0.72,-0.66 0.66,-0.66 c 13.4,-12.77 31.46,-22.95 49.8,-26.16 l 0.9,-0.18 0.84,-0.12 c 13.83,-2.19 30.46,-0.28 39.78,11.34 l 0.42,0.48 0.72,0.96 0.36,0.54 z M 1.8,37.32 C 6.96,25.64 8.94,11.77 2.46,0.18 L 2.16,-0.3 1.92,-0.78 1.56,-1.26 0.96,-2.22 0.6,-2.64 0.3,-3.12 C -19.13,-27.02 -59.41,-14.99 -80.64,0 l -0.66,0.48 -0.72,0.48 c -21.84,14.67 -47.61,48.47 -32.28,75.48 l 0.3,0.48 0.36,0.48 0.3,0.42 0.36,0.48 0.3,0.48 c 7.93,10.28 20.86,13.78 33.36,13.5 h 0.72 l 0.66,-0.06 c 16.02,-0.77 31.38,-6.99 44.76,-15.6 l 0.72,-0.48 0.66,-0.48 1.44,-0.96 c 13,-9.14 24.74,-21.59 31.56,-36.06 z"/></g></g></g></g></g></g><g id="g196"><g clip-path="url(#clipPath202)" id="g198"><g transform="translate(213.0601,290.54)" id="g204"><path id="path206" style="fill:#f28d3b;fill-opacity:1;fill-rule:evenodd;stroke:none" d="M 0,0 -1.14,-0.42 -2.28,-0.9 -3.54,-1.32 v -4.02 l 0.36,0.06 c 3.623,1.149 7.236,2.464 10.5,4.44 l 0.84,0.54"/></g><g transform="translate(227.1001,297.7402)" id="g208"><path id="path210" style="fill:#f28d3b;fill-opacity:1;fill-rule:evenodd;stroke:none" d="m 0,0 h -3.78 c -2.323,-3.049 -5.816,-5.016 -9.18,-6.721 L -14.04,-7.2 -5.88,-7.5 V -34.141 H 0"/></g><g transform="translate(248.5801,271.8203)" id="g212"><path id="path214" style="fill:#f28d3b;fill-opacity:1;fill-rule:evenodd;stroke:none" d="m 0,0 -5.64,-0.36 0.18,-0.84 c 2.396,-8.994 16.991,-9.147 23.4,-4.981 l 0.9,0.601 -10.98,0.24 C 4.99,-5.379 2.168,-4.581 0.72,-1.92 L 0.3,-1.021"/></g><g transform="translate(262.3799,279.7402)" id="g216"><path id="path218" style="fill:#f28d3b;fill-opacity:1;fill-rule:evenodd;stroke:none" d="M 0,0 -1.08,-0.42 -2.22,-0.66 -3.48,-0.84 -4.8,-0.9 -16.2,-1.561 -15.36,-2.16 c 5.805,-3.6 14.616,-3.301 19.8,1.32 l 0.72,0.72"/></g><g transform="translate(246.2402,294.5)" id="g220"><path id="path222" style="fill:#f28d3b;fill-opacity:1;fill-rule:evenodd;stroke:none" d="M 0,0 -0.78,-0.6 C -5.288,-4.418 -5.336,-11.759 -0.9,-15.66 l 0.84,-0.66 11.4,0.66 -1.32,0.06 c -11.423,1.182 -10.5,14.048 0.24,15.36 l 1.26,0.06"/></g><g transform="translate(257.04,297.7402)" id="g224"><path id="path226" style="fill:#f28d3b;fill-opacity:1;fill-rule:evenodd;stroke:none" d="M 0,0 H -0.66 C -4.199,-0.053 -7.826,-0.95 -10.68,-3.12 L -10.8,-3.24 0.72,-3.42 1.8,-3.48 C 4.786,-3.835 7.343,-4.894 8.94,-7.561 L 9.3,-8.4 9.6,-9.3 c 0.626,-2.64 0.026,-5.923 -2.34,-7.56 L 6.3,-17.46 5.34,-18 10.5,-18.12 v -0.84 C 10.37,-25.009 7.504,-30.714 0.78,-31.2 l -1.38,-0.06 10.98,-0.24 0.78,0.6 0.78,0.719 c 4.298,4.352 4.64,10.93 4.26,16.681 l -0.12,1.02 -0.12,0.959 C 14.912,-4.92 10.064,-1.446 3.78,-0.3 L 2.58,-0.12 1.32,0"/></g><g transform="translate(310.2598,297.2002)" id="g228"><path id="path230" style="fill:#f28d3b;fill-opacity:1;fill-rule:evenodd;stroke:none" d="M 0,0 H -30.84 V -4.021 H -7.5 L -8.04,-4.44 c -8.173,-7.07 -14.95,-17.456 -16.08,-28.38 l -0.06,-0.781 h 6.06 v 0.361 c 0.877,10.922 9.183,22.602 17.4,29.4 L 0,-3.24"/></g><g transform="translate(343.1396,282.6201)" id="g232"><path id="path234" style="fill:#f28d3b;fill-opacity:1;fill-rule:evenodd;stroke:none" d="m 0,0 -11.159,-0.66 h 1.26 C 1.039,-1.592 0.61,-14.984 -9.659,-16.08 L -10.92,-16.14 0,-16.2 l 0.78,0.66 c 3.978,3.713 4.581,10.202 0.72,14.16 l -0.72,0.72"/></g><g transform="translate(333.1797,285.6797)" id="g236"><path id="path238" style="fill:#f28d3b;fill-opacity:1;fill-rule:evenodd;stroke:none" d="m 0,0 h -0.3 c -3.656,0 -7.736,-1.266 -10.5,-3.72 l -0.78,-0.78 5.641,-0.12 1.08,0.421 1.139,0.3 1.26,0.179 h 1.261 l 11.159,0.66 -0.84,0.6 c -2.362,1.33 -3.866,1.976 -6.599,2.28 l -1.26,0.12"/></g><g transform="translate(321.7197,294.5596)" id="g240"><path id="path242" style="fill:#f28d3b;fill-opacity:1;fill-rule:evenodd;stroke:none" d="M 0,0 -1.26,-1.079 C -6.379,-5.731 -7.021,-16.971 -4.62,-22.92 l 0.301,-0.84 0.42,-0.78 c 4.163,-7.584 16.592,-8.689 23.519,-4.859 l 0.96,0.599 0.84,0.66 -10.92,0.061 c -8.647,-0.293 -13.573,9.596 -6,14.1 l 1.021,0.479 -5.641,0.12 v 0.84 c 0.198,6.204 2.986,11.381 9.6,12.24 l 1.32,0.061"/></g><g transform="translate(332.8799,297.7402)" id="g244"><path id="path246" style="fill:#f28d3b;fill-opacity:1;fill-rule:evenodd;stroke:none" d="m 0,0 h -1.26 c -3.304,-0.167 -6.151,-0.853 -9,-2.58 l -0.9,-0.601 10.8,-0.239 c 3.137,0.103 6.408,-1.218 7.68,-4.261 l 0.36,-1.079 5.82,0.3 -0.18,0.899 C 11.922,-2.736 7.356,-0.63 2.7,-0.12 L 1.38,0"/></g></g></g><g id="g248"><g clip-path="url(#clipPath254)" id="g250"><g id="g256"><g id="g258"/><g id="g282"><g id="g280" clip-path="url(#clipPath262)"><g id="g266" transform="translate(334.1396,412.4004)"><path id="path264" style="fill:#f4f0e1;fill-opacity:1;fill-rule:nonzero;stroke:none" d="m 0,0 -0.18,0.54 -0.36,0.42 -0.42,0.359 c -1.979,1.83 -3.92,3.67 -5.399,5.941 l -0.361,0.42 -0.3,0.48 -0.36,0.48 c -0.79,1.259 -1.63,2.66 -2.22,4.02 l -0.24,0.54 -0.24,0.48 c -0.63,1.15 -0.779,3.62 -2.699,3 l -0.481,-0.301 -0.3,-0.48 -1.74,-3.779 -1.92,-3.661 -2.16,-3.539 -2.399,-3.42 -2.58,-3.301 -2.761,-3.059 -0.3,-0.481 -0.059,-0.54 0.12,-0.539 0.299,-0.48 0.48,-0.3 0.54,-0.061 0.54,0.12 3.841,1.5 3.96,1.321 4.019,1.08 4.08,0.78 4.08,0.6 4.14,0.299 0.54,0.18 0.481,0.301 0.299,0.479 z m 80.221,13.62 c 21.759,14.56 47.71,48.65 32.219,75.48 l -0.599,0.96 -0.301,0.419 -0.359,0.48 C 92.33,115.27 51.88,103.56 30.66,88.8 L 29.94,88.32 29.28,87.84 C 7.271,73.35 -18.87,39.59 -4.02,12.359 l 0.6,-0.96 0.3,-0.48 0.36,-0.48 0.3,-0.419 0.36,-0.48 c 19.27,-23.881 59.79,-11.891 80.88,3.12 z m -135.441,-30.721 0.09,0.061 13.191,8.699 c 10.379,6.611 17.679,15.99 21.419,27.72 l 4.02,15.301 1.561,4.62 c 6.78,18.28 18.78,34.63 34.259,46.5 l 3.96,2.94 3.781,2.76 c 12.969,9.07 27.95,14.939 43.679,16.859 l 4.68,0.481 3.36,0.18 c 12.46,0.3 24.72,-4.94 33.12,-14.161 l 2.161,-2.579 1.679,-2.94 c 5.76,-10.93 6.58,-24.45 1.981,-35.941 L 116.4,50.28 114.36,46.02 C 107.12,32.04 96.53,19.78 83.58,10.8 L 79.681,8.22 75.601,5.46 C 59.101,-4.94 39.69,-10.801 20.16,-10.801 l -4.859,0.061 -15.78,1.439 c -12.161,0.66 -23.75,-3.21 -33.361,-10.619 l -7.97,-5.931 0.8,-0.54 -0.01,-0.009 -14.25,9.219 z"/></g><g id="g270" transform="translate(349.7998,399.1396)"><path id="path268" style="fill:#f28d3b;fill-opacity:1;fill-rule:nonzero;stroke:none" d="m 0,0 c -9.87,0.48 -17.92,2.66 -27.66,0.54 l -0.48,-0.06 -0.48,-0.12 -0.42,-0.059 -0.48,-0.12 -0.419,-0.12 C -39.31,-1.97 -46.97,-7.85 -54.42,-13.56 l -0.78,-0.54 -0.05,0.01 -1.42,0.96 -0.8,0.54 7.97,5.931 C -39.89,0.75 -28.3,4.62 -16.14,3.96 L -0.359,2.521 4.5,2.46 c 19.53,0 38.94,5.86 55.44,16.261 l 4.081,2.759 3.899,2.581 C 80.87,33.041 91.46,45.3 98.7,59.28 l 2.04,4.261 1.321,3.119 c 4.599,11.49 3.779,25.01 -1.981,35.941 l -1.68,2.94 -2.16,2.579 c -8.4,9.22 -20.66,14.461 -33.12,14.16 l -3.36,-0.179 -4.68,-0.481 C 39.351,119.7 24.37,113.831 11.4,104.76 L 7.62,102 3.66,99.061 C -11.819,87.19 -23.819,70.84 -30.6,52.561 l -1.56,-4.621 -4.02,-15.3 C -39.92,20.91 -47.22,11.53 -57.6,4.92 l -13.19,-8.699 v 0.009 l -0.02,0.031 -2.33,1.519 6.24,4.08 3.06,2.04 3.12,2.04 c 5.8,3.63 10.31,7.31 14.46,12.781 l 0.6,0.719 0.48,0.781 c 5.14,7.029 6.821,13.899 8.94,22.199 l 0.18,0.9 0.48,1.8 0.181,0.901 C -30.479,63.13 -21.01,79.28 -8.34,91.8 l 0.66,0.66 1.321,1.26 0.659,0.66 0.721,0.661 C 10.25,108.7 26.48,118.49 46.62,122.76 l 1.8,0.36 c 16.141,3.09 29.66,2.53 43.261,-7.559 l 0.779,-0.54 1.44,-1.201 0.72,-0.6 0.66,-0.6 0.361,-0.3 c 8.519,-7.469 12.04,-20.08 11.88,-31.08 V 80.76 L 107.46,80.28 C 106.9,64.081 95.79,47.7 85.38,35.94 l -0.66,-0.72 -1.98,-1.98 -0.66,-0.6 C 75.07,25.28 65.54,19.141 56.88,13.92 L 56.04,13.44 55.26,13.021 C 47.87,9.04 39.33,5.561 31.2,3.42 L 29.4,2.94 28.5,2.761 27.601,2.521 C 19.181,0.53 10.5,-0.159 1.86,-0.06 H 0.9 Z"/></g><g id="g274" transform="translate(428.1602,440.3599)"><path id="path272" style="fill:#f28d3b;fill-opacity:1;fill-rule:nonzero;stroke:none" d="m 0,0 c 11.17,11.42 21.149,27.59 21.12,44.04 v 0.72 l -0.06,0.66 C 20.439,59.93 11.229,70 -2.641,73.5 L -4.8,74.04 -6.24,74.28 C -31.46,78.33 -60.05,64.15 -77.58,46.74 l -0.72,-0.66 -0.66,-0.66 C -93.51,30.86 -108.061,4.75 -95.88,-15.3 l 0.72,-1.08 0.72,-0.96 0.419,-0.48 c 9.301,-11.62 25.971,-13.53 39.781,-11.34 l 0.84,0.12 0.9,0.18 c 18.17,3.18 36.53,13.42 49.74,26.16 l 0.72,0.66 0.66,0.66 0.72,0.66 z M 18.42,61.14 C 33.91,34.31 7.96,0.22 -13.8,-14.34 l -1.44,-0.96 c -21.09,-15.01 -61.611,-27 -80.88,-3.12 l -0.36,0.48 -0.3,0.42 -0.361,0.48 -0.299,0.48 -0.6,0.96 c -14.851,27.23 11.29,60.99 33.3,75.48 l 0.66,0.48 0.72,0.48 C -42.141,75.6 -1.69,87.31 17.16,63 l 0.36,-0.48 0.3,-0.42 z"/></g><g id="g278" transform="translate(333.96,412.9404)"><path id="path276" style="fill:#f28d3b;fill-opacity:1;fill-rule:nonzero;stroke:none" d="M 0,0 0.18,-0.54 0.12,-1.141 -0.18,-1.62 -0.66,-1.921 -1.2,-2.101 -5.34,-2.4 -9.42,-3 l -4.08,-0.78 -4.02,-1.08 -3.959,-1.321 -3.841,-1.5 -0.54,-0.12 -0.54,0.061 -0.48,0.3 -0.3,0.48 -0.12,0.539 0.06,0.54 0.3,0.481 2.76,3.059 2.58,3.301 2.4,3.42 2.16,3.539 1.92,3.661 1.74,3.779 0.3,0.48 0.48,0.301 c 1.92,0.62 2.07,-1.85 2.7,-3 l 0.24,-0.48 0.24,-0.54 C -8.83,10.76 -7.99,9.359 -7.2,8.1 l 0.36,-0.48 0.3,-0.48 0.36,-0.42 C -4.7,4.449 -2.76,2.609 -0.78,0.779 L -0.36,0.42 Z"/></g></g></g></g></g></g><g id="g284"><g clip-path="url(#clipPath290)" id="g286"><g id="g292"><g id="g294"/><g id="g306"><g id="g304" clip-path="url(#clipPath298)"><g id="g302" transform="translate(343.3799,322.3398)"><path id="path300" style="fill:#f28d3b;fill-opacity:1;fill-rule:nonzero;stroke:none" d="m 0,0 h -38.28 v 14.16 h 19.2 L -66.72,49.44 -114.3,14.16 h 19.2 V 0 h -38.28 l -33.3,-24.72 -7.98,11.34 -7.92,11.34 L -66.72,74.58 49.2,-2.04 41.22,-13.38 33.3,-24.72 Z"/></g></g></g></g></g></g><g id="g308"><g clip-path="url(#clipPath314)" id="g310"><g id="g316"><g id="g318"/><g id="g462"><g id="g460" clip-path="url(#clipPath322)"><g id="g326" transform="translate(346.8604,523.2798)"><path id="path324" style="fill:#4c911f;fill-opacity:1;fill-rule:nonzero;stroke:none" d="m 0,0 0.12,-0.36 -0.06,-0.42 -2.04,-3.84 -2.1,-4.2 -6.54,2.4 9.479,6.66 0.42,0.12 0.42,-0.06 z"/></g><g id="g330" transform="translate(344.7598,526.2798)"><path id="path328" style="fill:#4c911f;fill-opacity:1;fill-rule:nonzero;stroke:none" d="M 0,0 0.181,-0.42 0.12,-0.84 -0.18,-1.14 -9.66,-7.8 v 6.96 l 4.62,0.54 4.32,0.6 0.42,-0.06 z"/></g><g id="g334" transform="translate(341.8203,512.7202)"><path id="path332" style="fill:#4c911f;fill-opacity:1;fill-rule:nonzero;stroke:none" d="M 0,0 -1.561,-2.7 -3.24,-5.28 -13.62,-1.5 -7.561,2.76 Z"/></g><g id="g338" transform="translate(337.3799,505.7598)"><path id="path336" style="fill:#4c911f;fill-opacity:1;fill-rule:nonzero;stroke:none" d="m 0,0 -1.439,-1.92 -3,-3.72 -13.561,4.92 6.84,4.8 z"/></g><g id="g342" transform="translate(333.1201,525.1401)"><path id="path340" style="fill:#4c911f;fill-opacity:1;fill-rule:nonzero;stroke:none" d="m 0,0 v -8.04 l -6.061,-4.26 v 11.04 l 3,0.72 z"/></g><g id="g346" transform="translate(331.5,498.5601)"><path id="path344" style="fill:#4c911f;fill-opacity:1;fill-rule:nonzero;stroke:none" d="m 0,0 -2.28,-2.34 -2.34,-2.22 -15.3,5.58 5.82,4.08 z"/></g><g id="g350" transform="translate(325.3203,492.4399)"><path id="path348" style="fill:#4c911f;fill-opacity:1;fill-rule:nonzero;stroke:none" d="M 0,0 -2.101,-1.8 -4.38,-3.36 -6.78,-4.68 -9.301,-5.82 -12.12,-6 l -2.76,0.18 -2.7,0.54 -2.4,1.32 -2.1,1.86 -2.101,1.92 8.46,5.94 z"/></g><g id="g354" transform="translate(325.0801,523.3398)"><path id="path352" style="fill:#4c911f;fill-opacity:1;fill-rule:nonzero;stroke:none" d="m 0,0 v -11.88 l -6.84,-4.8 v 14.4 l 2.279,0.84 z"/></g><g id="g358" transform="translate(316.2598,520.2798)"><path id="path356" style="fill:#4c911f;fill-opacity:1;fill-rule:nonzero;stroke:none" d="m 0,0 v -15 l -5.819,-4.08 v 16.32 l 2.88,1.44 z"/></g><g id="g362" transform="translate(308.46,516.5601)"><path id="path360" style="fill:#4c911f;fill-opacity:1;fill-rule:nonzero;stroke:none" d="m 0,0 v -16.74 l -8.46,-5.88 -1.08,2.58 -1.02,2.58 -0.419,2.76 0.419,2.7 0.72,2.7 1.14,2.52 1.92,1.98 2.1,1.86 2.22,1.62 z"/></g><g id="g366" transform="translate(299.2197,493.3999)"><path id="path364" style="fill:#4c911f;fill-opacity:1;fill-rule:nonzero;stroke:none" d="M 0,0 1.141,-1.68 -20.76,-17.4 h -0.03 l -0.03,3.18 z"/></g><g id="g370" transform="translate(297.7197,534.6201)"><path id="path368" style="fill:#4c911f;fill-opacity:1;fill-rule:nonzero;stroke:none" d="m 0,0 0.42,-3.9 -0.12,-3.96 -0.36,-3.96 -0.78,-3.84 -2.04,-3.42 -2.52,-3.12 -2.88,-2.7 -3.48,-1.74 -3.9,-0.96 -3.96,-0.78 v 14.64 z"/></g><g id="g374" transform="translate(296.46,542.2998)"><path id="path372" style="fill:#4c911f;fill-opacity:1;fill-rule:nonzero;stroke:none" d="m 0,0 0.78,-4.56 -19.14,-13.38 v 10.2 l 17.52,12.3 z"/></g><g id="g378" transform="translate(294.0601,553.1001)"><path id="path376" style="fill:#4c911f;fill-opacity:1;fill-rule:nonzero;stroke:none" d="m 0,0 0.84,-3.3 -16.8,-11.76 V -3.18 L -2.04,6.54 -1.02,3.3 Z"/></g><g id="g382" transform="translate(289.3799,566.54)"><path id="path380" style="fill:#4c911f;fill-opacity:1;fill-rule:nonzero;stroke:none" d="m 0,0 1.62,-4.08 -12.9,-9.06 v 10.5 l 9.42,6.66 z"/></g><g id="g386" transform="translate(283.0801,578.96)"><path id="path384" style="fill:#4c911f;fill-opacity:1;fill-rule:nonzero;stroke:none" d="m 0,0 3.18,-5.88 -8.16,-5.7 V 4.98 l 0.06,0.42 c 0.39,0.81 1.07,0.91 1.8,0.48 l 0.3,-0.36 z"/></g><g id="g390" transform="translate(279.3599,409.3398)"><path id="path388" style="fill:#4c911f;fill-opacity:1;fill-rule:nonzero;stroke:none" d="m 0,0 v -10.68 l -2.7,-1.719 -2.64,1.719 V 0 l 1.98,-0.28 1.56,0.03 z"/></g><g id="g394" transform="translate(274.8901,476.02)"><path id="path392" style="fill:#4c911f;fill-opacity:1;fill-rule:nonzero;stroke:none" d="m 0,0 0.03,3.16 0.3,25.68 h 2.88 l 0.3,-25.68 0.03,-3.18 0.21,-17.7 h -3.96 z"/></g><g id="g398" transform="translate(275.2798,520.8799)"><path id="path396" style="fill:#4c911f;fill-opacity:1;fill-rule:nonzero;stroke:none" d="m 0,0 v -14.64 l -3.96,0.78 -3.9,0.96 -3.54,1.74 -2.88,2.7 -2.52,3.12 -1.98,3.42 -0.78,3.84 -0.42,3.96 -0.06,3.96 0.42,3.9 z"/></g><g id="g402" transform="translate(275.2798,534.5601)"><path id="path400" style="fill:#4c911f;fill-opacity:1;fill-rule:nonzero;stroke:none" d="m 0,0 v -10.2 l -19.14,13.38 0.72,4.56 0.9,4.56 z"/></g><g id="g406" transform="translate(275.2798,549.9199)"><path id="path404" style="fill:#4c911f;fill-opacity:1;fill-rule:nonzero;stroke:none" d="m 0,0 v -11.88 l -16.86,11.76 0.9,3.3 0.96,3.3 1.08,3.24 z"/></g><g id="g410" transform="translate(275.2798,563.8999)"><path id="path408" style="fill:#4c911f;fill-opacity:1;fill-rule:nonzero;stroke:none" d="m 0,0 v -10.5 l -12.96,9.06 1.68,4.08 1.8,4.02 z"/></g><g id="g414" transform="translate(275.2798,583.9399)"><path id="path412" style="fill:#4c911f;fill-opacity:1;fill-rule:nonzero;stroke:none" d="m 0,0 v -16.56 l -8.16,5.7 3.18,5.88 2.82,5.52 C -1.6,1.44 -0.18,1.43 0,0"/></g><g id="g418" transform="translate(274.9199,479.1802)"><path id="path416" style="fill:#4c911f;fill-opacity:1;fill-rule:nonzero;stroke:none" d="m 0,0 -0.03,-3.16 -21.93,15.7 1.2,1.68 z"/></g><g id="g422" transform="translate(255.48,504.5601)"><path id="path420" style="fill:#4c911f;fill-opacity:1;fill-rule:nonzero;stroke:none" d="M 0,0 0.42,-2.7 0,-5.46 l -1.02,-2.58 -1.14,-2.58 -8.4,5.88 V 12 L -8.1,10.68 -5.94,9.06 -3.78,7.2 -1.86,5.22 -0.72,2.7 Z"/></g><g id="g426" transform="translate(252.1802,492.2598)"><path id="path424" style="fill:#4c911f;fill-opacity:1;fill-rule:nonzero;stroke:none" d="m 0,0 -2.04,-1.92 -2.1,-1.86 -2.4,-1.32 -2.76,-0.54 -2.76,-0.18 -2.76,0.18 -2.52,1.14 -2.4,1.32 -2.34,1.56 -2.04,1.8 15.72,5.76 z"/></g><g id="g430" transform="translate(242.9399,517.52)"><path id="path428" style="fill:#4c911f;fill-opacity:1;fill-rule:nonzero;stroke:none" d="m 0,0 v -16.32 l -5.88,4.08 v 15 l 2.94,-1.32 z"/></g><g id="g434" transform="translate(241.7998,499.5801)"><path id="path432" style="fill:#4c911f;fill-opacity:1;fill-rule:nonzero;stroke:none" d="m 0,0 -15.36,-5.58 -2.28,2.22 -2.28,2.34 14.04,5.1 z"/></g><g id="g438" transform="translate(235.0801,521.0601)"><path id="path436" style="fill:#4c911f;fill-opacity:1;fill-rule:nonzero;stroke:none" d="m 0,0 v -14.4 l -6.78,4.8 V 2.28 l 4.56,-1.44 z"/></g><g id="g442" transform="translate(233.9399,505.04)"><path id="path440" style="fill:#4c911f;fill-opacity:1;fill-rule:nonzero;stroke:none" d="m 0,0 -13.5,-4.92 -3,3.72 -1.44,1.92 11.16,4.08 z"/></g><g id="g446" transform="translate(226.3198,523.8799)"><path id="path444" style="fill:#4c911f;fill-opacity:1;fill-rule:nonzero;stroke:none" d="m 0,0 v -11.04 l -6.06,4.26 V 1.26 L -3,0.72 Z"/></g><g id="g450" transform="translate(225.1802,511.2202)"><path id="path448" style="fill:#4c911f;fill-opacity:1;fill-rule:nonzero;stroke:none" d="m 0,0 -10.38,-3.78 -1.74,2.58 -1.5,2.7 7.56,2.76 z"/></g><g id="g454" transform="translate(218.2798,525.4399)"><path id="path452" style="fill:#4c911f;fill-opacity:1;fill-rule:nonzero;stroke:none" d="m 0,0 v -6.96 l -9.54,6.66 -0.24,0.3 -0.06,0.42 0.12,0.42 0.36,0.24 0.42,0.06 4.26,-0.6 z"/></g><g id="g458" transform="translate(217.1401,516.8599)"><path id="path456" style="fill:#4c911f;fill-opacity:1;fill-rule:nonzero;stroke:none" d="m 0,0 -6.54,-2.4 -2.1,4.2 -2.04,3.84 -0.06,0.42 0.12,0.36 0.3,0.3 0.42,0.06 0.36,-0.12 z"/></g></g></g></g></g></g><g id="g464"><g clip-path="url(#clipPath470)" id="g466"><g id="g472"><g id="g474"/><g id="g506"><g id="g504" clip-path="url(#clipPath478)"><g id="g482" transform="translate(298.4404,433.8198)"><path id="path480" style="fill:#f28d3b;fill-opacity:1;fill-rule:nonzero;stroke:none" d="M 0,0 -0.12,2.22 -0.48,4.5 c -1.01,4.24 -2.891,7.69 -5.32,10.34 -0.54,0.59 -1.111,1.15 -1.71,1.66 -8.071,6.99 -20.551,6.82 -28.52,-0.03 v -0.01 c -0.591,-0.49 -1.151,-1.03 -1.68,-1.61 -2.92,-3.14 -5,-7.36 -5.67,-12.63 L -43.5,0 l 0.12,-2.28 c 0.66,-5.25 2.73,-9.46 5.64,-12.599 0.54,-0.591 1.11,-1.141 1.71,-1.651 7.969,-6.849 20.449,-7.02 28.52,-0.03 0.61,0.52 1.19,1.09 1.739,1.7 2.42,2.65 4.291,6.08 5.291,10.3 l 0.36,2.28 z M 2.699,2.4 2.819,0 2.699,-2.46 2.399,-4.8 C -4.2,-32.49 -42.4,-30.629 -46.26,-2.46 l -0.12,2.46 0.12,2.4 c 3.75,28.16 42.11,30.01 48.659,2.4 z"/></g><g id="g486" transform="translate(298.3203,436.04)"><path id="path484" style="fill:#f4f0e1;fill-opacity:1;fill-rule:nonzero;stroke:none" d="M 0,0 0.12,-2.22 0,-4.5 -0.36,-6.78 c -1,-4.22 -2.87,-7.65 -5.29,-10.3 l -0.05,0.04 -2.52,1.14 c -8.89,3.68 -17.99,3.65 -26.88,0 l -2.461,-1.14 -0.059,-0.06 c -2.91,3.14 -4.98,7.35 -5.64,12.6 l -0.12,2.28 0.12,2.22 c 0.67,5.27 2.75,9.49 5.67,12.63 l 0.029,-0.03 2.461,-1.2 c 8.89,-3.65 17.99,-3.68 26.88,0 l 2.52,1.2 0.02,0.02 c 2.43,-2.65 4.31,-6.1 5.32,-10.34 z"/></g><g id="g490" transform="translate(292.6201,419)"><path id="path488" style="fill:#f28d3b;fill-opacity:1;fill-rule:nonzero;stroke:none" d="m 0,0 0.05,-0.04 c -0.55,-0.61 -1.13,-1.18 -1.74,-1.7 l -0.05,0.06 -2.7,1.14 c -7.26,2.91 -15.78,2.87 -23.04,0 l -2.7,-1.14 -0.03,-0.03 c -0.6,0.51 -1.17,1.06 -1.71,1.65 l 0.06,0.06 2.46,1.14 c 8.89,3.65 17.99,3.68 26.88,0 z"/></g><g id="g494" transform="translate(292.6401,448.6602)"><path id="path492" style="fill:#f28d3b;fill-opacity:1;fill-rule:nonzero;stroke:none" d="m 0,0 -0.02,-0.02 -2.52,-1.2 c -8.89,-3.68 -17.99,-3.65 -26.88,0 l -2.46,1.2 -0.03,0.03 c 0.53,0.58 1.09,1.12 1.68,1.61 l 0.03,-0.02 2.7,-1.14 c 7.26,-2.87 15.78,-2.91 23.04,0 l 2.7,1.14 0.05,0.06 C -1.11,1.15 -0.54,0.59 0,0"/></g><g id="g498" transform="translate(290.9302,450.3198)"><path id="path496" style="fill:#f4f0e1;fill-opacity:1;fill-rule:nonzero;stroke:none" d="m 0,0 -0.05,-0.06 -2.7,-1.14 c -7.26,-2.91 -15.78,-2.87 -23.04,0 l -2.7,1.14 -0.03,0.02 v 0.01 C -20.55,6.82 -8.07,6.99 0,0"/></g><g id="g502" transform="translate(290.8799,417.3203)"><path id="path500" style="fill:#f4f0e1;fill-opacity:1;fill-rule:nonzero;stroke:none" d="M 0,0 0.05,-0.061 C -8.02,-7.051 -20.5,-6.88 -28.47,-0.03 l 0.03,0.03 2.7,1.14 c 7.26,2.87 15.78,2.91 23.04,0 z"/></g></g></g></g></g></g><g id="g508"><g clip-path="url(#clipPath514)" id="g510"><g id="g516"><g id="g518"/><g id="g538"><g id="g536" clip-path="url(#clipPath522)"><g id="g526" transform="translate(435.96,393.5596)"><path id="path524" style="fill:#f28d3b;fill-opacity:1;fill-rule:nonzero;stroke:none" d="M 0,0 -24.3,-16.979 -2.52,-48.18 H -19.8 l -16.14,23.04 -10.98,-7.679 V -48.18 H -61.14 V 0 h 14.22 V -22.439 L -14.82,0 Z"/></g><g id="g530" transform="translate(297.4199,318.9199)"><path id="path528" style="fill:#f28d3b;fill-opacity:1;fill-rule:nonzero;stroke:none" d="m 0,0 v -0.18 c -1.67,-17.2 -39.84,-17.2 -41.46,0 V 0 1.44 h 12.3 V 0 -0.42 l 0.06,-0.12 v -0.12 l 0.06,-0.12 v -0.06 l 0.06,-0.12 0.06,-0.12 0.12,-0.24 0.06,-0.06 0.06,-0.12 0.06,-0.12 0.3,-0.3 c 0.32,-0.5 0.91,-0.769 1.38,-1.14 l 0.18,-0.06 0.12,-0.06 0.18,-0.12 0.12,-0.06 c 0.92,-0.369 1.08,-0.49 2.1,-0.72 L -24,-4.14 h 0.18 c 0.69,-0.19 1.74,-0.339 2.46,-0.299 l 0.18,-0.061 h 0.84 l 0.24,0.061 c 0.71,-0.04 1.78,0.119 2.46,0.299 h 0.18 l 0.18,0.06 c 1.11,0.22 1.19,0.351 2.16,0.72 l 0.12,0.06 0.18,0.12 0.12,0.06 0.18,0.06 0.12,0.121 0.12,0.059 0.12,0.12 0.18,0.06 0.12,0.12 0.12,0.06 0.42,0.42 0.12,0.06 0.06,0.12 0.18,0.18 0.06,0.12 0.12,0.12 0.06,0.12 0.06,0.06 0.12,0.24 0.06,0.12 v 0.12 l 0.06,0.06 0.06,0.12 v 0.24 l 0.06,0.12 V 0 0.18 c -0.16,1.72 -1.87,2.89 -3.36,3.42 l -0.3,0.12 -15.54,6 -0.48,0.18 -0.42,0.18 c -12.77,5.75 -11.71,17.22 1.02,22.2 l 0.48,0.12 0.48,0.18 c 9.28,3.61 28.63,1.14 30.36,-10.92 L 0,21.3 V 20.94 19.5 h -12.3 v 1.44 0.18 c -0.78,5.8 -16.14,5.75 -16.86,0 v -0.18 -0.18 c 0.16,-1.78 2.03,-2.88 3.54,-3.48 l 0.3,-0.12 15.3,-5.88 C -5.32,9.51 -0.31,5.79 0,0.36 Z"/></g><g id="g534" transform="translate(173.1001,393.5596)"><path id="path532" style="fill:#f28d3b;fill-opacity:1;fill-rule:nonzero;stroke:none" d="m 0,0 v -11.34 h -18.42 v -36.84 h -14.22 v 36.84 H -51.06 V 0 Z"/></g></g></g></g></g></g><g id="g540"><g clip-path="url(#clipPath546)" id="g542"><g id="g548"><g id="g550"/><g id="g562"><g id="g560" clip-path="url(#clipPath554)"><g id="g558" transform="translate(468.54,543.6802)"><path id="path556" style="fill:#f28d3b;fill-opacity:1;fill-rule:nonzero;stroke:none" d="m 0,0 0.18,1.68 -3.06,0.48 c -65.01,9.74 -128.58,28.94 -188.28,56.4 l -0.72,0.36 -0.66,-0.36 C -252.3,31.09 -315.74,11.93 -380.82,2.16 l -3.06,-0.48 1.26,-13.38 1.2,-13.38 1.26,-13.44 1.26,-13.38 c 4.15,-43.81 8.02,-87.74 12.36,-131.52 l 0.24,-1.5 0.24,-1.56 c 2.04,-13.66 5.98,-27.05 11.76,-39.601 l 1.98,-4.139 0.72,-1.38 c 3.49,-7.03 7.52,-13.24 11.94,-19.68 l 0.36,-0.48 c 1.86,-2.88 5.52,-5.54 8.1,-7.74 l 0.54,-0.36 0.48,-0.36 0.54,-0.42 1.62,-1.08 c 8.85,-5.63 18.54,-8.42 28.44,-11.64 l 6.36,-2.04 c 20.47,-6.69 41.92,-11.82 63.18,-15.24 l 1.68,-0.3 3.24,-0.48 0.84,-0.121 c 6.15,-0.889 10.98,-1.75 16.98,-4.199 l 1.02,-0.421 0.96,-0.42 c 4.35,-1.929 8.41,-4.479 12.12,-7.379 l 0.3,-0.18 0.24,-0.24 0.24,-0.18 0.54,-0.481 h 0.06 v 0.061 h 0.06 v 0.06 h 0.06 l 0.12,0.12 c 0.39,0.44 0.21,0.05 0.6,0.48 l 0.12,0.12 0.06,0.06 0.06,0.059 h 0.06 l 0.12,0.121 0.12,0.06 0.12,0.12 h 0.06 l 0.24,0.239 h 0.06 l 0.18,0.181 h 0.06 l 0.12,0.12 h 0.06 l 0.18,0.18 h 0.06 l 0.24,0.24 h 0.06 l 0.12,0.12 h 0.06 l 0.12,0.119 h 0.06 v 0.061 h 0.06 l 0.06,0.06 0.06,0.06 h 0.06 l 0.06,0.06 h 0.06 v 0.06 l 0.06,0.06 h 0.06 l 0.06,0.059 h 0.06 v 0.061 h 0.06 l 0.06,0.059 h 0.06 l 0.06,0.121 h 0.06 l 0.06,0.06 h 0.06 v 0.06 h 0.06 l 0.06,0.06 h 0.06 l 0.06,0.06 v 0.059 h 0.06 l 0.06,0.061 h 0.06 l 0.12,0.12 h 0.06 v 0.06 h 0.06 l 0.12,0.12 h 0.06 l 0.06,0.06 h 0.06 l 0.12,0.119 h 0.06 l 0.06,0.061 v 0.06 h 0.06 l 0.06,0.06 h 0.06 l 0.12,0.12 h 0.06 l 0.12,0.119 h 0.06 l 0.12,0.12 h 0.06 l 0.12,0.121 h 0.06 l 0.12,0.12 0.18,0.06 0.12,0.06 0.12,0.12 0.24,0.12 c 0.46,0.35 1.27,0.74 1.8,1.08 l 0.36,0.18 c 1.31,0.72 3.04,1.67 4.44,2.16 l 0.72,0.359 c 0.45,0.261 0.18,-0.019 0.66,0.241 l 0.24,0.12 c 0.23,0.12 0.49,0.16 0.78,0.3 l 0.24,0.12 h 0.12 l 0.12,0.06 c 0.63,0.36 0.29,0.02 0.78,0.3 l 0.24,0.12 h 0.12 l 0.12,0.06 0.18,0.06 0.12,0.06 h 0.12 l 0.36,0.179 h 0.18 l 0.36,0.181 h 0.12 l 0.12,0.06 0.18,0.06 h 0.12 l 0.24,0.119 h 0.12 l 0.12,0.061 0.18,0.06 h 0.12 l 0.24,0.12 h 0.12 l 0.18,0.06 0.12,0.06 h 0.12 c 0.63,0.219 1.49,0.42 2.16,0.599 h 0.12 l 0.24,0.12 h 0.18 l 0.12,0.061 h 0.12 l 0.18,0.06 h 0.12 l 0.12,0.06 c 0.46,0.04 1.09,0.25 1.56,0.3 l 0.18,0.06 h 0.12 l 0.18,0.06 h 0.24 l 0.12,0.06 h 0.18 l 0.06,0.06 h 0.36 l 0.06,0.06 h 0.24 l 0.12,0.06 h 0.36 l 0.06,0.06 h 0.3 l 0.059,0.059 h 0.301 l 0.06,0.061 h 0.36 l 0.06,0.06 c 1.69,0.15 3.75,0.57 5.46,0.839 h 0.24 l 0.18,0.061 c 2.39,0.33 4.88,0.79 7.26,1.14 l 0.24,0.06 0.18,0.06 h 0.18 l 0.24,0.06 h 0.18 c 5.7,1.04 11.42,2.21 17.16,3.42 l 0.42,0.12 0.36,0.06 c 7.92,1.75 15.85,3.65 23.64,5.88 l 0.42,0.12 0.36,0.12 0.42,0.06 0.36,0.12 0.419,0.12 0.361,0.12 c 7.73,2.21 15.389,4.729 23.04,7.2 l 0.18,0.06 0.24,0.06 c 3.79,1.25 7.52,2.48 11.28,3.84 l 0.18,0.12 0.12,0.06 0.54,0.179 c 1.53,0.591 3.21,1.261 4.68,1.981 l 0.18,0.059 0.12,0.061 0.18,0.06 c 0.55,0.33 1.36,0.6 1.92,0.96 l 0.12,0.06 0.18,0.06 c 0.62,0.29 1.22,0.679 1.86,0.96 l 0.12,0.12 0.18,0.06 0.12,0.06 0.18,0.12 0.12,0.06 0.18,0.12 0.12,0.06 0.18,0.06 0.119,0.12 0.181,0.059 0.12,0.121 0.18,0.06 0.12,0.12 0.12,0.06 0.18,0.059 0.12,0.121 0.18,0.06 0.12,0.12 0.12,0.06 0.18,0.12 c 0.48,0.33 1.19,0.71 1.62,1.08 l 0.18,0.06 0.12,0.12 0.12,0.06 0.12,0.12 c 0.33,0.159 1.21,0.81 1.5,1.079 l 0.12,0.061 0.06,0.06 h 0.06 l 0.3,0.3 h 0.06 c 0.21,0.24 0.21,0.15 0.36,0.3 l 0.06,0.06 h 0.06 l 0.06,0.06 0.06,0.06 0.06,0.059 0.06,0.061 0.12,0.12 c 0.29,0.13 0.83,0.649 1.08,0.899 h 0.12 l 0.24,0.241 c 0.3,0.219 0.53,0.52 0.839,0.719 l 0.241,0.241 c 0.31,0.31 0.58,0.48 0.9,0.839 l 0.12,0.061 0.12,0.12 0.119,0.06 v 0.06 h 0.061 v 0.06 h 0.06 v 0.059 h 0.06 v 0.061 h 0.06 v 0.06 h 0.06 v 0.06 h 0.06 v 0.06 h 0.06 v 0.06 h 0.06 v 0.06 h 0.06 l 0.12,0.12 v 0.059 h 0.06 v 0.061 h 0.06 l 0.12,0.12 v 0.06 h 0.06 v 0.06 h 0.06 l 0.06,0.06 v 0.059 h 0.06 l 0.06,0.061 0.06,0.059 v 0.061 h 0.06 l 0.06,0.06 0.06,0.06 v 0.06 h 0.059 l 0.061,0.06 v 0.06 h 0.06 v 0.059 h 0.06 v 0.061 h 0.06 v 0.06 h 0.06 v 0.06 h 0.06 v 0.06 h 0.06 v 0.06 l 0.06,0.06 0.12,0.12 v 0.059 h 0.06 v 0.061 h 0.06 v 0.06 h 0.06 v 0.06 l 0.06,0.06 v 0.06 h 0.06 v 0.06 h 0.06 v 0.059 H -45 v 0.061 l 0.06,0.059 v 0.061 h 0.06 v 0.06 h 0.06 v 0.06 l 0.06,0.06 v 0.06 h 0.06 v 0.06 h 0.06 v 0.059 l 0.06,0.061 v 0.06 h 0.059 v 0.06 l 0.061,0.06 v 0.06 h 0.06 v 0.06 l 0.12,0.12 v 0.059 h 0.06 v 0.061 l 0.12,0.12 v 0.06 l 0.06,0.06 0.06,0.06 v 0.059 l 0.06,0.061 0.06,0.059 v 0.061 l 0.12,0.12 v 0.06 h 0.06 v 0.12 h 0.06 v 0.059 h 0.06 v 0.061 l 0.12,0.12 v 0.12 h 0.06 v 0.06 l 0.12,0.12 v 0.059 h 0.06 v 0.061 l 0.06,0.06 v 0.06 h 0.06 v 0.06 l 0.059,0.06 v 0.06 h 0.061 v 0.059 c 0.35,0.481 0.67,1.021 1.02,1.5 l 0.06,0.12 0.06,0.061 0.06,0.12 0.06,0.06 0.06,0.12 0.06,0.059 0.059,0.061 0.061,0.12 0.06,0.06 0.06,0.12 0.06,0.06 0.06,0.119 0.06,0.061 v 0.06 l 0.06,0.12 0.06,0.06 0.06,0.119 0.06,0.061 0.06,0.12 0.12,0.12 0.06,0.12 0.06,0.06 0.06,0.12 0.12,0.12 0.06,0.12 0.06,0.06 0.06,0.12 v 0.059 l 0.06,0.061 0.06,0.12 0.06,0.06 0.059,0.12 0.121,0.12 0.06,0.12 0.12,0.12 0.06,0.12 v 0.06 l 0.06,0.059 0.06,0.121 0.06,0.06 0.06,0.12 0.12,0.12 0.06,0.119 0.06,0.061 v 0.06 l 0.06,0.12 0.06,0.06 0.06,0.06 0.06,0.12 0.12,0.12 v 0.12 l 0.12,0.12 0.06,0.119 0.06,0.061 0.059,0.06 0.061,0.12 v 0.06 l 0.06,0.06 0.06,0.12 0.12,0.12 v 0.06 l 0.06,0.12 0.06,0.06 0.06,0.06 0.12,0.24 0.12,0.18 0.12,0.12 0.06,0.18 0.12,0.18 0.06,0.12 0.12,0.18 0.12,0.12 0.06,0.18 0.06,0.059 0.059,0.12 v 0.061 l 0.061,0.06 0.12,0.18 0.06,0.18 0.12,0.12 0.12,0.18 0.06,0.179 0.12,0.121 0.06,0.18 0.12,0.18 0.06,0.18 0.12,0.12 0.12,0.179 c 0.81,1.58 1.82,3.201 2.58,4.801 l 0.12,0.12 0.06,0.18 0.12,0.18 0.06,0.179 c 3.75,7.031 6.91,14.351 9.36,22.021 l 0.059,0.18 0.061,0.18 0.06,0.18 0.06,0.18 c 2.63,7.74 4.35,15.36 5.58,23.339 l 0.06,0.241 v 0.179 l 0.06,0.181 v 0.18 c 0.3,1.75 0.56,3.509 0.72,5.28 l 0.06,0.24 v 0.18 l 0.06,0.18 v 0.42 l 0.06,0.12 v 0.48 l 0.06,0.06 v 0.6 l 0.06,0.119 v 0.481 l 0.06,0.059 v 0.54 l 0.06,0.061 v 0.6 l 0.06,0.12 v 0.48 l 0.06,0.119 v 0.601 l 0.06,0.12 v 0.54 l 0.06,0.18 v 0.42 l 0.06,0.24 v 0.42 l 0.06,0.18 v 0.24 c 0.36,4.19 0.76,8.42 1.2,12.599 l 0.12,1.681 0.12,0.84 0.06,0.84 0.06,0.84 C -9.68,-104.29 -4.78,-52.15 0,0 M 15.6,13.86 14.22,-0.36 12.9,-14.64 10.26,-43.14 8.94,-57.36 7.62,-71.64 c -3.48,-36.19 -6.74,-72.41 -10.2,-108.6 l -0.36,-3.6 c -0.6,-4.13 -1.21,-8.27 -2.04,-12.36 l -0.3,-1.74 -0.42,-1.74 -0.36,-1.74 c -2.44,-10.33 -5.97,-20.77 -10.38,-30.42 l -2.34,-4.86 -0.84,-1.56 c -4.36,-8.48 -9.36,-16.69 -15.18,-24.24 l -1.2,-1.32 c -3.79,-3.77 -7.95,-7.221 -12.48,-10.08 l -1.56,-0.96 -0.78,-0.42 -0.72,-0.48 -0.84,-0.42 -0.78,-0.42 c -11.2,-6.12 -24.96,-9.41 -36.9,-13.561 l -3.42,-1.079 -3.42,-1.02 c -17.04,-5 -34.75,-9.071 -52.26,-12 l -3.54,-0.6 -3.54,-0.54 -3.48,-0.54 c -12.42,-1.53 -23.41,-8.05 -30.66,-18.24 l -0.48,-0.72 -0.54,-0.721 -0.48,-0.779 -0.48,0.779 -0.48,0.721 -0.54,0.72 c -7.08,10.15 -18.33,16.74 -30.6,18.24 l -7.08,1.08 -3.48,0.6 c -17.66,2.94 -35.13,7 -52.32,12 l -3.42,1.02 -3.42,1.079 c -12.17,4.231 -25.49,7.421 -36.9,13.561 l -1.56,0.84 -0.78,0.48 -0.78,0.42 -0.72,0.48 -0.78,0.48 c -4.56,2.819 -8.67,6.31 -12.48,10.08 l -1.2,1.32 c -5.55,7.02 -11.13,16.24 -15.18,24.24 l -0.84,1.56 -2.34,4.86 c -4.43,9.66 -7.93,20.08 -10.38,30.42 l -0.42,1.74 -0.72,3.48 c -0.67,4.13 -1.48,8.2 -1.98,12.36 l -0.18,1.799 -0.24,1.801 c -3.34,36.199 -6.74,72.4 -10.14,108.6 l -1.32,14.28 -1.32,14.22 -2.64,28.5 -1.32,14.28 -1.38,14.22 3.36,0.48 c 68.38,8.93 135.36,28.4 197.94,57.36 l 6.12,2.88 6.18,-2.88 C -123.271,42.78 -55.99,23.23 12.24,14.34 Z"/></g></g></g></g></g></g></g></svg>