<?xml version="1.0" standalone="no"?>
<!DOCTYPE svg PUBLIC "-//W3C//DTD SVG 20010904//EN"
 "http://www.w3.org/TR/2001/REC-SVG-20010904/DTD/svg10.dtd">
<svg version="1.0" xmlns="http://www.w3.org/2000/svg"
 width="1024.000000pt" height="1024.000000pt" viewBox="0 0 1024.000000 1024.000000"
 preserveAspectRatio="xMidYMid meet">
<metadata>
Created by potrace 1.11, written by Peter Selinger 2001-2013
</metadata>
<g transform="translate(0.000000,1024.000000) scale(0.100000,-0.100000)"
fill="#000000" stroke="none">
<path d="M5015 9341 c-191 -91 -689 -307 -730 -316 -5 -2 -30 -12 -55 -23 -25
-11 -88 -36 -140 -56 -134 -50 -144 -54 -150 -53 -3 0 -15 -5 -28 -12 -21 -11
-294 -110 -317 -114 -5 -2 -14 -5 -20 -8 -5 -4 -91 -32 -190 -64 -99 -31 -200
-64 -225 -72 -25 -8 -67 -21 -95 -29 -27 -8 -79 -23 -115 -34 -127 -36 -285
-81 -303 -85 -10 -2 -52 -14 -95 -25 -42 -12 -88 -24 -101 -26 -13 -3 -32 -9
-43 -15 -10 -5 -18 -8 -18 -5 0 2 -28 -2 -63 -11 -34 -8 -69 -16 -77 -18 -8
-1 -35 -8 -60 -15 -25 -7 -52 -14 -60 -15 -8 -2 -37 -9 -65 -15 -67 -16 -82
-19 -129 -26 -22 -3 -44 -8 -48 -10 -9 -6 -36 -12 -88 -20 -19 -3 -43 -7 -52
-10 -18 -5 -36 -9 -118 -24 -30 -6 -66 -12 -80 -15 -14 -3 -54 -10 -90 -16
-36 -5 -83 -14 -105 -19 -36 -8 -70 -13 -152 -25 -30 -4 -95 -15 -123 -20 -30
-6 -113 -18 -140 -21 -14 -1 -25 -3 -25 -4 0 0 -16 -3 -35 -5 -51 -5 -122 -15
-145 -19 -11 -3 -23 -5 -27 -5 -3 -1 -5 -13 -3 -28 2 -16 7 -57 10 -93 3 -36
7 -78 10 -95 2 -16 6 -61 9 -100 3 -38 8 -92 11 -120 2 -27 7 -77 10 -110 3
-33 7 -76 9 -95 3 -19 7 -71 10 -115 4 -44 9 -93 11 -110 3 -16 7 -61 10 -100
3 -38 7 -92 10 -120 3 -27 7 -77 10 -110 3 -33 7 -76 9 -95 3 -19 8 -71 11
-115 8 -86 12 -134 19 -205 2 -25 7 -81 11 -125 4 -44 9 -96 11 -115 2 -19 7
-64 9 -100 3 -36 7 -83 10 -105 2 -22 7 -67 10 -100 3 -33 7 -82 10 -110 2
-27 7 -77 10 -110 3 -33 7 -76 10 -95 3 -19 7 -64 10 -100 4 -57 9 -103 20
-215 2 -16 6 -68 10 -115 4 -47 9 -98 10 -115 2 -16 6 -60 9 -97 3 -37 8 -80
10 -95 3 -15 7 -66 11 -113 3 -47 8 -103 10 -125 3 -22 7 -65 9 -95 6 -69 15
-161 21 -220 7 -68 17 -180 20 -225 4 -53 24 -229 30 -266 3 -16 8 -44 11 -61
4 -18 7 -40 9 -48 29 -214 134 -561 237 -790 43 -94 144 -290 184 -355 13 -22
27 -47 31 -55 4 -8 11 -19 15 -25 18 -22 78 -115 78 -120 0 -3 5 -11 10 -18 6
-7 31 -39 56 -72 25 -33 60 -74 77 -90 98 -95 273 -225 301 -225 8 0 16 -4 18
-9 4 -12 127 -72 228 -110 47 -18 94 -37 105 -41 11 -5 56 -20 100 -34 44 -13
166 -52 270 -86 186 -61 304 -97 336 -105 40 -9 185 -47 199 -52 21 -9 97 -25
102 -23 2 1 16 -4 32 -10 16 -6 45 -13 64 -16 19 -3 47 -10 61 -16 14 -5 27
-9 29 -8 1 1 15 -1 30 -4 15 -4 36 -8 47 -10 11 -3 43 -10 70 -16 28 -6 59
-13 70 -14 11 -2 45 -8 75 -14 59 -12 113 -22 145 -27 11 -2 36 -6 55 -10 19
-4 44 -8 55 -10 11 -1 34 -5 50 -8 17 -3 50 -8 75 -11 25 -3 56 -8 70 -11 13
-2 42 -7 63 -10 54 -9 160 -42 225 -72 133 -60 285 -185 360 -295 18 -27 36
-48 40 -48 4 0 15 12 24 28 29 47 137 159 198 207 135 102 300 169 465 190 44
5 104 14 195 31 14 2 52 8 85 14 33 5 71 12 85 15 14 3 39 7 55 10 41 7 79 15
200 40 39 9 83 18 100 21 16 3 91 21 165 40 74 19 144 37 155 39 30 7 218 57
235 63 8 3 20 6 25 8 28 7 186 57 315 99 80 26 168 54 195 63 344 107 555 221
755 406 185 171 441 626 580 1031 38 110 91 292 96 330 1 11 3 20 4 20 3 0 11
39 15 70 2 17 6 41 10 55 3 14 7 36 10 50 2 14 8 56 15 93 6 38 13 94 15 125
3 32 7 73 10 92 2 19 7 69 11 110 3 41 7 89 9 105 1 17 6 66 10 110 3 44 8 91
10 105 2 14 7 61 10 105 4 44 8 91 10 105 2 14 6 59 10 100 3 41 8 91 10 110
2 19 7 69 10 110 9 110 14 151 21 161 3 5 0 9 -6 9 -6 0 -8 5 -4 11 7 12 8 23
19 139 3 36 7 85 10 110 2 25 6 70 9 100 3 30 8 78 10 105 3 28 8 79 11 115 7
91 14 158 20 209 3 24 8 71 10 105 5 80 14 172 20 216 2 19 7 67 10 105 3 39
7 88 10 110 2 22 7 72 10 110 3 39 8 88 10 110 6 59 14 143 20 205 10 115 15
167 20 225 9 84 12 119 20 205 9 110 14 168 21 235 9 98 12 126 19 205 3 41 8
91 10 110 13 117 16 190 8 188 -7 -2 -112 10 -163 17 -8 2 -35 6 -60 9 -25 3
-58 8 -75 11 -16 2 -50 7 -75 10 -25 4 -56 9 -70 11 -14 3 -92 16 -175 29 -82
14 -170 29 -195 35 -25 5 -56 12 -70 14 -72 13 -196 38 -325 66 -55 12 -111
23 -125 26 -14 3 -33 7 -42 10 -9 3 -26 7 -37 9 -12 3 -31 7 -43 10 -13 3 -43
10 -68 16 -74 16 -108 25 -255 63 -77 20 -147 38 -155 40 -8 2 -22 6 -30 9
-20 7 -300 86 -327 92 -12 3 -35 10 -50 16 -16 6 -38 13 -49 15 -46 9 -731
239 -804 271 -8 3 -17 7 -20 8 -40 14 -488 189 -525 206 -22 9 -125 54 -230
100 -104 45 -237 104 -294 130 -57 27 -108 49 -115 49 -6 0 -38 -13 -71 -29z"/>
</g>
</svg>
